<?xml version="1.0" encoding="UTF-8"?>
<svg width="49px" height="33px" viewBox="0 0 49 33" version="1.1" xmlns="http://www.w3.org/2000/svg" xmlns:xlink="http://www.w3.org/1999/xlink">
    <!-- Generator: Sketch 51.2 (57519) - http://www.bohemiancoding.com/sketch -->
    <title>card</title>
    <desc>Created with Sketch.</desc>
    <defs></defs>
    <g id="KYC" stroke="none" stroke-width="1" fill="none" fill-rule="evenodd">
        <g id="Desktop-kyc-documents,-step-5" transform="translate(-944.000000, -629.000000)" fill-rule="nonzero">
            <g id="card" transform="translate(944.000000, 629.000000)">
                <path d="M44.7647629,5.45777447e-15 L4.23486328,5.45777447e-15 C1.89985652,5.45777447e-15 0,1.90603152 0,4.24900267 L0,28.7509972 C0,31.0939684 1.89985652,33 4.23486328,33 L44.7647629,33 C47.1001435,33 49,31.0939684 49,28.7509972 L49,4.24900267 C49,1.90603152 47.1001435,0 44.7647629,5.45777447e-15 Z M47.5446396,28.7509972 C47.5446396,30.2887245 46.2975083,31.5399093 44.7647629,31.5399093 L4.23486328,31.5399093 C2.70249174,31.5399093 1.45536039,30.2887245 1.45536039,28.7509972 L1.45536039,4.24900267 C1.45536039,2.7112755 2.70249174,1.46009067 4.23486328,1.46009067 L44.7647629,1.46009067 C46.2975083,1.46009067 47.5446396,2.7112755 47.5446396,4.24900267 L47.5446396,28.7509972 Z" id="Shape" fill="#B6B6B6"></path>
                <path d="M24.2243774,6 L4.77602103,6 C4.34755542,6 4,6.44798357 4,7.00025679 C4,7.55253014 4.34755542,8 4.77602103,8 L24.2243774,8 C24.6528431,8 25,7.55253014 25,7.00025679 C25,6.44798357 24.6528431,6 24.2243774,6 Z" id="Shape" fill="#B6B6B6"></path>
                <path d="M30.5198527,11 L18.480394,11 C18.2151534,11 18,14.1322888 18,17.998202 C18,21.8641152 18.2151534,25 18.480394,25 L30.5198527,25 C30.7850934,25 31,21.8641152 31,17.998202 C31,14.1322888 30.7850934,11 30.5198527,11 Z" id="Shape" stroke="#979797"></path>
                <path d="M4.62989318,17 L14.3701067,17 C14.7178906,17 15,16.5520164 15,15.9997431 C15,15.4474699 14.7178906,15 14.3701067,15 L4.62989318,15 C4.28210935,15 4,15.4474699 4,15.9997431 C4,16.5520164 4.28210935,17 4.62989318,17 Z" id="Shape" fill="#B6B6B6"></path>
                <path d="M34.6298932,8 L44.3701067,8 C44.7178906,8 45,7.55201643 45,6.99974308 C45,6.44746986 44.7178906,6 44.3701067,6 L34.6298932,6 C34.2821094,6 34,6.44746986 34,6.99974308 C34,7.55201643 34.2821094,8 34.6298932,8 Z" id="Shape" fill="#B6B6B6"></path>
                <path d="M14.5937215,19 L4.40648721,19 C4.18205284,19 4,19.4474698 4,19.9997431 C4,20.5520165 4.18205284,21 4.40648721,21 L14.5937215,21 C14.8181559,21 15,20.5520165 15,19.9997431 C15,19.4474698 14.8181559,19 14.5937215,19 Z" id="Shape" fill="#B6B6B6"></path>
                <path d="M43.4856892,27 L5.51508868,27 C4.67856058,27 4,27.4474698 4,27.9997431 C4,28.5520165 4.67856058,29 5.51508868,29 L43.4856892,29 C44.3222175,29 45,28.5520165 45,27.9997431 C45,27.4474698 44.3222175,27 43.4856892,27 Z" id="Shape" fill="#B6B6B6"></path>
            </g>
        </g>
    </g>
</svg>