<?xml version="1.0" encoding="UTF-8"?>
<svg width="49px" height="33px" viewBox="0 0 49 33" version="1.1" xmlns="http://www.w3.org/2000/svg" xmlns:xlink="http://www.w3.org/1999/xlink">
    <!-- Generator: Sketch 51.2 (57519) - http://www.bohemiancoding.com/sketch -->
    <title>card</title>
    <desc>Created with Sketch.</desc>
    <defs></defs>
    <g id="KYC" stroke="none" stroke-width="1" fill="none" fill-rule="evenodd">
        <g id="Desktop-kyc-documents,-step-5" transform="translate(-883.000000, -629.000000)" fill="#B6B6B6" fill-rule="nonzero">
            <g id="card" transform="translate(883.000000, 629.000000)">
                <path d="M44.7647629,5.45777447e-15 L4.23486328,5.45777447e-15 C1.89985652,5.45777447e-15 0,1.90603152 0,4.24900267 L0,28.7509972 C0,31.0939684 1.89985652,33 4.23486328,33 L44.7647629,33 C47.1001435,33 49,31.0939684 49,28.7509972 L49,4.24900267 C49,1.90603152 47.1001435,0 44.7647629,5.45777447e-15 Z M47.5446396,28.7509972 C47.5446396,30.2887245 46.2975083,31.5399093 44.7647629,31.5399093 L4.23486328,31.5399093 C2.70249174,31.5399093 1.45536039,30.2887245 1.45536039,28.7509972 L1.45536039,4.24900267 C1.45536039,2.7112755 2.70249174,1.46009067 4.23486328,1.46009067 L44.7647629,1.46009067 C46.2975083,1.46009067 47.5446396,2.7112755 47.5446396,4.24900267 L47.5446396,28.7509972 Z" id="Shape"></path>
                <path d="M43.4856892,6 L5.51508868,6 C4.67856058,6 4,7.11995892 4,8.50064197 C4,9.88132536 4.67856058,11 5.51508868,11 L43.4856892,11 C44.3222175,11 45,9.88132536 45,8.50064197 C45,7.11995892 44.3222175,6 43.4856892,6 Z" id="Shape"></path>
                <path d="M44.2107077,13 L39.7892922,13 C39.3532751,13 39,13.4474699 39,13.9997431 C39,14.5520164 39.3532751,15 39.7892922,15 L44.2107077,15 C44.6467248,15 45,14.5520164 45,13.9997431 C45,13.4474699 44.6467248,13 44.2107077,13 Z" id="Shape"></path>
                <path d="M32.7444192,18 L44.2555807,18 C44.666598,18 45,17.5520164 45,16.9997431 C45,16.4474699 44.666598,16 44.2555807,16 L32.7444192,16 C32.333402,16 32,16.4474699 32,16.9997431 C32,17.5520164 32.333402,18 32.7444192,18 Z" id="Shape"></path>
                <path d="M44.5198527,19 L32.480394,19 C32.2151534,19 32,19.4474698 32,19.9997431 C32,20.5520165 32.2151534,21 32.480394,21 L44.5198527,21 C44.7850934,21 45,20.5520165 45,19.9997431 C45,19.4474698 44.7850934,19 44.5198527,19 Z" id="Shape"></path>
                <path d="M32.7444192,25 L44.2555807,25 C44.666598,25 45,24.5520164 45,23.9997431 C45,23.4474699 44.666598,23 44.2555807,23 L32.7444192,23 C32.333402,23 32,23.4474699 32,23.9997431 C32,24.5520164 32.333402,25 32.7444192,25 Z" id="Shape"></path>
                <path d="M44.5198527,26 L32.480394,26 C32.2151534,26 32,26.4474698 32,26.9997431 C32,27.5520165 32.2151534,28 32.480394,28 L44.5198527,28 C44.7850934,28 45,27.5520165 45,26.9997431 C45,26.4474698 44.7850934,26 44.5198527,26 Z" id="Shape"></path>
                <path d="M4.74441921,17 L16.2555807,17 C16.666598,17 17,16.5520164 17,15.9997431 C17,15.4474699 16.666598,15 16.2555807,15 L4.74441921,15 C4.33340196,15 4,15.4474699 4,15.9997431 C4,16.5520164 4.33340196,17 4.74441921,17 Z" id="Shape"></path>
                <path d="M16.5198527,18 L4.48039397,18 C4.21515336,18 4,18.4474698 4,18.9997431 C4,19.5520165 4.21515336,20 4.48039397,20 L16.5198527,20 C16.7850934,20 17,19.5520165 17,18.9997431 C17,18.4474698 16.7850934,18 16.5198527,18 Z" id="Shape"></path>
                <path d="M4.74441921,24 L16.2555807,24 C16.666598,24 17,23.5520164 17,22.9997431 C17,22.4474699 16.666598,22 16.2555807,22 L4.74441921,22 C4.33340196,22 4,22.4474699 4,22.9997431 C4,23.5520164 4.33340196,24 4.74441921,24 Z" id="Shape"></path>
                <path d="M16.5198527,25 L4.48039397,25 C4.21515336,25 4,25.4474698 4,25.9997431 C4,26.5520165 4.21515336,27 4.48039397,27 L16.5198527,27 C16.7850934,27 17,26.5520165 17,25.9997431 C17,25.4474698 16.7850934,25 16.5198527,25 Z" id="Shape"></path>
            </g>
        </g>
    </g>
</svg>