<?xml version="1.0" encoding="UTF-8"?>
<svg width="33px" height="34px" viewBox="0 0 33 34" version="1.1" xmlns="http://www.w3.org/2000/svg" xmlns:xlink="http://www.w3.org/1999/xlink">
    <!-- Generator: Sketch 51.2 (57519) - http://www.bohemiancoding.com/sketch -->
    <title>coin icon</title>
    <desc>Created with Sketch.</desc>
    <defs></defs>
    <g id="dashboard-copy" stroke="none" stroke-width="1" fill="none" fill-rule="evenodd">
        <g id="Desktop-HD" transform="translate(-135.000000, -445.000000)">
            <g id="COIN-ICON" transform="translate(136.000000, 375.000000)">
                <g id="coin-icon" transform="translate(0.000000, 71.000000)">
                    <ellipse id="Oval-2" stroke="#000000" cx="15.5" cy="16" rx="15.5" ry="16"></ellipse>
                    <g id="coins" transform="translate(7.000000, 9.000000)" fill="#000000" fill-rule="nonzero">
                        <path d="M16.9968833,5.33333333 C16.9688333,4.82637037 16.39225,4.43022222 15.2390833,4.128 C15.2779,4.03911111 15.2997167,3.94666667 15.3,3.85066667 L15.3,1.77777778 L15.2951833,1.77777778 C15.19375,0.050962963 8.42718333,0 7.65,0 C6.87281667,0 0.10625,0.050962963 0.00481666667,1.77777778 L0,1.77777778 L0,1.8162963 L0,3.85155556 C0.00141666667,4.41451852 0.69615,4.85511111 1.72975,5.18311111 C1.71558333,5.2322963 1.70708333,5.28237037 1.70425,5.33333333 L1.7,5.33333333 L1.7,5.37185185 L1.7,7.40355556 C0.5865,7.70340741 0.0303166667,8.09392593 0.00283333333,8.59259259 L0,8.59259259 L0,8.63111111 L0,10.6663704 C0.00085,11.0583704 0.338866667,11.3908148 0.891933333,11.6678519 C0.870966667,11.728 0.857933333,11.7893333 0.85425,11.8521481 L0.85,11.8521481 L0.85,11.8906667 L0.85,13.9259259 C0.852266667,14.9114074 2.97415,15.5232593 5.33176667,15.8088889 C5.34905,15.8124444 5.36491667,15.8198519 5.38333333,15.8198519 C5.38871667,15.8198519 5.39325,15.8168889 5.39863333,15.8165926 C5.8531,15.8702222 6.31493333,15.912 6.77195,15.9419259 C6.78158333,15.9431111 6.79008333,15.9478519 6.8,15.9478519 C6.80538333,15.9478519 6.80963333,15.9448889 6.81473333,15.9445926 C7.395,15.9813333 7.96591667,16 8.5,16 C9.03408333,16 9.605,15.9813333 10.1852667,15.9442963 C10.1903667,15.9445926 10.1949,15.9475556 10.2,15.9475556 C10.2099167,15.9475556 10.2184167,15.9425185 10.22805,15.9416296 C10.6850667,15.9117037 11.1469,15.8702222 11.6013667,15.8162963 C11.60675,15.8162963 11.6112833,15.8192593 11.6166667,15.8192593 C11.6350833,15.8192593 11.65095,15.8118519 11.6682333,15.8082963 C14.02585,15.5226667 16.14745,14.9105185 16.15,13.9247407 L16.15,11.8518519 L16.1454667,11.8518519 C16.1256333,11.4885926 15.82955,11.1854815 15.24475,10.9321481 C15.28045,10.8465185 15.3,10.7576296 15.3,10.6654815 L15.3,8.72888889 C16.3171667,8.40177778 16.9985833,7.96414815 17,7.40622222 L17,5.33333333 L16.9968833,5.33333333 Z M14.7027333,10.7617778 L14.6061167,10.8503704 C14.4573667,10.9875556 14.20945,11.1259259 13.8833333,11.2592593 L13.8833333,9.84651852 C14.2202167,9.72385185 14.50695,9.58785185 14.7333333,9.43881481 L14.7333333,10.6648889 C14.7333333,10.6954074 14.7225667,10.728 14.7027333,10.7617778 Z M8.3657,12.1386667 C8.32433333,12.1398519 8.28268333,12.1404444 8.24103333,12.1413333 C8.13988333,12.1434074 8.03618333,12.144 7.93361667,12.1448889 L7.93361667,10.6648889 C8.01153333,10.664 8.08945,10.6628148 8.16736667,10.6613333 C8.18238333,10.661037 8.1974,10.6607407 8.21241667,10.6604444 C8.49773333,10.6548148 8.78305,10.6456296 9.06695,10.632 L9.06695,12.1114074 C9.00631667,12.1146667 8.9454,12.1176296 8.88391667,12.1202963 C8.71335,12.1282963 8.54108333,12.1342222 8.3657,12.1386667 Z M7.12838333,12.1428148 C6.99861667,12.1404444 6.86941667,12.1371852 6.74106667,12.133037 C6.7252,12.1324444 6.70933333,12.1318519 6.69346667,12.1312593 C6.53905,12.1259259 6.38576667,12.1191111 6.23361667,12.1114074 L6.23361667,10.6322963 C6.51751667,10.6462222 6.80283333,10.6554074 7.08815,10.6607407 C7.10316667,10.661037 7.11818333,10.6613333 7.13291667,10.6616296 C7.21083333,10.6631111 7.28875,10.6642963 7.36666667,10.6651852 L7.36666667,12.1460741 C7.3117,12.1454815 7.25673333,12.1454815 7.20205,12.1445926 C7.17711667,12.144 7.15303333,12.1431111 7.12838333,12.1428148 Z M2.01081667,11.4672593 C2.00146667,11.4642963 1.99268333,11.4616296 1.98333333,11.458963 L1.98333333,10.0275556 C2.24796667,10.1022222 2.53243333,10.1703704 2.83333333,10.2322963 L2.83333333,11.6785185 C2.57323333,11.6207407 2.33325,11.56 2.1148,11.4977778 C2.08023333,11.4874074 2.04453333,11.4776296 2.01081667,11.4672593 Z M7.98291667,13.9208889 C8.06083333,13.9223704 8.13875,13.9235556 8.21666667,13.9244444 L8.21666667,15.4056296 C7.8251,15.4017778 7.44713333,15.3899259 7.08333333,15.3712593 L7.08333333,13.8918519 C7.36723333,13.9057778 7.65255,13.914963 7.93786667,13.9202963 C7.95288333,13.9202963 7.9679,13.9205926 7.98291667,13.9208889 Z M9.06213333,13.92 C9.34745,13.9143704 9.63276667,13.9051852 9.91666667,13.8915556 L9.91666667,15.370963 C9.55286667,15.3896296 9.1749,15.4014815 8.78333333,15.4053333 L8.78333333,13.9241481 C8.86125,13.9232593 8.93916667,13.9220741 9.01708333,13.9205926 C9.0321,13.9205926 9.04711667,13.9202963 9.06213333,13.92 Z M11.3333333,13.7860741 L11.3333333,15.2574815 C11.06105,15.2874074 10.7777167,15.3137778 10.4833333,15.3354074 L10.4833333,13.8577778 C10.7706333,13.8382222 11.0545333,13.8142222 11.3333333,13.7860741 Z M11.9,13.7220741 C12.1921167,13.6853333 12.4757333,13.6435556 12.75,13.597037 L12.75,15.0518519 C12.4831,15.101037 12.1994833,15.1463704 11.9,15.1875556 L11.9,13.7220741 Z M13.3166667,13.4912593 C13.6175667,13.4293333 13.9020333,13.3611852 14.1666667,13.2865185 L14.1666667,14.7179259 C13.9142167,14.7940741 13.6300333,14.8678519 13.3166667,14.9374815 L13.3166667,13.4912593 Z M3.68333333,13.4912593 L3.68333333,14.9374815 C3.36996667,14.8678519 3.08578333,14.7940741 2.83333333,14.7179259 L2.83333333,13.2865185 C3.09796667,13.3611852 3.38243333,13.4296296 3.68333333,13.4912593 Z M4.25,13.5973333 C4.52426667,13.6438519 4.80788333,13.6856296 5.1,13.7223704 L5.1,15.1878519 C4.80051667,15.1466667 4.5169,15.1013333 4.25,15.0521481 L4.25,13.5973333 Z M5.66666667,13.7860741 C5.94546667,13.8142222 6.22936667,13.8382222 6.51666667,13.8580741 L6.51666667,15.3357037 C6.22228333,15.3140741 5.93895,15.2877037 5.66666667,15.2577778 L5.66666667,13.7860741 Z M4.96371667,12.0142222 C4.93481667,12.0112593 4.9062,12.008 4.87758333,12.005037 C4.85718333,12.002963 4.83706667,12.0002963 4.81666667,11.9982222 L4.81666667,10.5271111 C5.09546667,10.5552593 5.37936667,10.5792593 5.66666667,10.5991111 L5.66666667,12.0755556 C5.42866667,12.0577778 5.1935,12.0376296 4.96371667,12.0142222 Z M4.25,10.4628148 L4.25,11.9282963 C3.95051667,11.8871111 3.6669,11.8417778 3.4,11.7925926 L3.4,10.3377778 C3.67426667,10.3842963 3.95788333,10.4263704 4.25,10.4628148 Z M9.82203333,12.0616296 C9.7597,12.0666667 9.6968,12.0717037 9.63333333,12.0764444 L9.63333333,10.5988148 C9.92063333,10.578963 10.2045333,10.5552593 10.4833333,10.5268148 L10.4833333,11.9982222 C10.3082333,12.0174815 10.1291667,12.0355556 9.94528333,12.0512593 C9.9042,12.0551111 9.86311667,12.0583704 9.82203333,12.0616296 Z M11.05,11.9282963 L11.05,10.4628148 C11.3421167,10.4260741 11.6257333,10.3842963 11.9,10.3377778 L11.9,11.7925926 C11.6331,11.8417778 11.3494833,11.8874074 11.05,11.9282963 Z M12.4666667,10.232 C12.7675667,10.1700741 13.0520333,10.1019259 13.3166667,10.0272593 L13.3166667,11.4586667 C13.0642167,11.5348148 12.7800333,11.6085926 12.4666667,11.6782222 L12.4666667,10.232 Z M8.59208333,8.87851852 C8.37901667,8.87288889 8.17076667,8.8642963 7.9662,8.85392593 C7.95515,8.85333333 7.9441,8.85274074 7.93333333,8.85244444 L7.93333333,7.37303704 C8.21723333,7.38696296 8.50255,7.39614815 8.78786667,7.40148148 C8.80288333,7.40177778 8.8179,7.40207407 8.83263333,7.40237037 C8.91055,7.40385185 8.98846667,7.40503704 9.06638333,7.40592593 L9.06638333,8.88533333 C8.9284,8.88385185 8.78928333,8.88325926 8.6547,8.88 C8.63401667,8.87940741 8.61276667,8.87911111 8.59208333,8.87851852 Z M1.98333333,4.64414815 L1.98333333,3.21274074 C2.24796667,3.28740741 2.53243333,3.35555556 2.83333333,3.41748148 L2.83333333,4.8637037 C2.79848333,4.856 2.7625,4.8482963 2.7285,4.84059259 C2.57776667,4.80592593 2.43071667,4.76977778 2.29018333,4.73155556 C2.18308333,4.70281481 2.08136667,4.67348148 1.98333333,4.64414815 Z M7.13291667,3.84681481 C7.21083333,3.8482963 7.28875,3.84948148 7.36666667,3.85037037 L7.36666667,5.32977778 C6.9853,5.32592593 6.6062,5.31555556 6.23333333,5.296 L6.23333333,3.81777778 C6.51723333,3.8317037 6.80255,3.84088889 7.08786667,3.84622222 C7.10288333,3.84622222 7.1179,3.84651852 7.13291667,3.84681481 Z M8.21213333,3.84592593 C8.49745,3.8402963 8.78276667,3.83111111 9.06666667,3.81748148 L9.06666667,5.2957037 C9.0185,5.29807407 8.97231667,5.30162963 8.92386667,5.304 C8.9199,5.3042963 8.91593333,5.3042963 8.91168333,5.30459259 C8.72156667,5.31348148 8.52776667,5.32 8.33141667,5.32474074 C8.30081667,5.32562963 8.27021667,5.32592593 8.23961667,5.32681481 C8.13875,5.32888889 8.03561667,5.32918519 7.93333333,5.33037037 L7.93333333,3.85037037 C8.01125,3.84948148 8.08916667,3.8482963 8.16708333,3.84681481 C8.1821,3.84651852 8.19711667,3.84622222 8.21213333,3.84592593 Z M14.66845,3.99466667 L14.6605167,3.99288889 L14.5573833,4.07674074 C14.4077833,4.19851852 14.178,4.32177778 13.8833333,4.44088889 L13.8833333,3.03140741 C14.2202167,2.90874074 14.50695,2.77274074 14.7333333,2.6237037 L14.7333333,3.84977778 C14.7333333,3.89481481 14.7106667,3.94340741 14.66845,3.99466667 Z M11.05,5.1117037 L11.05,3.648 C11.3421167,3.61125926 11.6257333,3.56948148 11.9,3.52296296 L11.9,4.97540741 C11.6314,5.02518519 11.3486333,5.07081481 11.05,5.1117037 Z M12.4666667,4.86133333 L12.4666667,3.41748148 C12.7675667,3.35555556 13.0520333,3.28740741 13.3166667,3.21274074 L13.3166667,4.64088889 C13.0628,4.71822222 12.7769167,4.792 12.4666667,4.86133333 Z M10.4833333,3.712 L10.4833333,5.18162963 C10.2096333,5.21185185 9.9263,5.23822222 9.63333333,5.26014815 L9.63333333,3.784 C9.92063333,3.76414815 10.2045333,3.74014815 10.4833333,3.712 Z M4.81666667,5.18222222 L4.81666667,3.712 C5.09546667,3.74014815 5.37936667,3.76414815 5.66666667,3.784 L5.66666667,5.25896296 C5.37823333,5.23733333 5.09376667,5.21274074 4.81666667,5.18222222 Z M4.25,3.648 L4.25,5.112 C4.1939,5.1042963 4.13553333,5.09807407 4.08,5.09007407 C4.04373333,5.08474074 4.00916667,5.07911111 3.97346667,5.07377778 C3.8097,5.04918519 3.64961667,5.02281481 3.49265,4.99525926 C3.4612,4.98962963 3.43088333,4.9837037 3.4,4.97807407 L3.4,3.52325926 C3.67426667,3.56948148 3.95788333,3.61155556 4.25,3.648 Z M7.2964,8.81155556 C7.25815,8.80859259 7.21961667,8.80562963 7.18165,8.80266667 C7.00031667,8.78785185 6.82323333,8.77155556 6.6504,8.75348148 C6.61328333,8.74962963 6.57616667,8.74548148 6.53933333,8.74162963 C6.53168333,8.74074074 6.52431667,8.73955556 6.51666667,8.73896296 L6.51666667,7.26755556 C6.79546667,7.2957037 7.07936667,7.3197037 7.36666667,7.33955556 L7.36666667,8.8162963 C7.34371667,8.81451852 7.31935,8.81333333 7.2964,8.81155556 Z M5.42441667,8.59022222 C5.31221667,8.57155556 5.20681667,8.55140741 5.1,8.53185185 L5.1,7.07881481 C5.37426667,7.12533333 5.65788333,7.16711111 5.95,7.20385185 L5.95,8.66933333 C5.7766,8.64533333 5.60688333,8.62044444 5.44396667,8.59377778 C5.43745,8.5922963 5.43093333,8.59111111 5.42441667,8.59022222 Z M4.53333333,6.97274074 L4.53333333,8.41659259 C4.22025,8.34637037 3.93635,8.2717037 3.68333333,8.19407407 L3.68333333,6.768 C3.94796667,6.84266667 4.23243333,6.91111111 4.53333333,6.97274074 Z M3.11666667,6.58696296 L3.11666667,7.99466667 C2.67126667,7.81481481 2.38396667,7.63111111 2.29046667,7.46755556 L2.27148333,7.43437037 C2.26978333,7.42518519 2.26695,7.41540741 2.26666667,7.40622222 L2.26666667,6.17925926 C2.49305,6.3282963 2.77978333,6.4642963 3.11666667,6.58696296 Z M9.91213333,7.40148148 C10.19745,7.39585185 10.4827667,7.38666667 10.7666667,7.37303704 L10.7666667,8.85096296 C10.3943667,8.87022222 10.0158333,8.88088889 9.63333333,8.88503704 L9.63333333,7.40592593 C9.71125,7.40503704 9.78916667,7.40385185 9.86708333,7.40237037 C9.8821,7.40207407 9.89711667,7.40177778 9.91213333,7.40148148 Z M13.57365,8.53837037 C13.4492667,8.56088889 13.32375,8.58311111 13.1948333,8.60355556 C13.1208833,8.61540741 13.0452333,8.62666667 12.9693,8.63792593 C12.8976167,8.64859259 12.8231,8.65777778 12.7502833,8.66755556 L12.7502833,7.20355556 C13.0424,7.16681481 13.3260167,7.12503704 13.6002833,7.07851852 L13.6002833,8.53333333 C13.5912167,8.53511111 13.5824333,8.53688889 13.57365,8.53837037 Z M11.6552,8.79140741 C11.5495167,8.80059259 11.4404333,8.80651852 11.3333333,8.81451852 L11.3333333,7.33955556 C11.6206333,7.3197037 11.9045333,7.296 12.1833333,7.26755556 L12.1833333,8.73748148 C12.0187167,8.75555556 11.8543833,8.77362963 11.6852333,8.78844444 C11.6750333,8.78933333 11.6654,8.79051852 11.6552,8.79140741 Z M14.8931333,8.23585185 C14.7520333,8.27703704 14.6027167,8.31555556 14.4502833,8.35318519 C14.3797333,8.37037037 14.3077667,8.38755556 14.2341,8.40414815 C14.2122833,8.40918519 14.18905,8.41362963 14.16695,8.41866667 L14.16695,6.97303704 C14.46785,6.91111111 14.7523167,6.84296296 15.01695,6.7682963 L15.01695,8.1997037 C14.97615,8.21155556 14.9350667,8.2237037 14.8931333,8.23585185 Z M16.4302167,5.35259259 C16.40415,5.55377778 15.9681,5.82133333 15.1897833,6.07288889 C14.18735,6.39674074 12.6188167,6.69333333 10.63095,6.78518519 C10.5292333,6.78962963 10.4278,6.79407407 10.3241,6.79762963 C10.2393833,6.80059259 10.1543833,6.80325926 10.0679667,6.80562963 C9.83336667,6.81096296 9.59536667,6.81481481 9.35,6.81481481 C9.10463333,6.81481481 8.86663333,6.81096296 8.63203333,6.80533333 C8.5459,6.80325926 8.4609,6.8002963 8.3759,6.79733333 C8.27191667,6.79407407 8.17048333,6.78933333 8.06905,6.78488889 C6.08118333,6.69303704 4.51236667,6.39644444 3.51021667,6.07259259 C2.73813333,5.82311111 2.30293333,5.55762963 2.27063333,5.35733333 C2.27205,5.3517037 2.27205,5.34696296 2.27545,5.33985185 C2.29471667,5.34488889 2.31625,5.34903704 2.3358,5.35407407 C2.44658333,5.38162963 2.5602,5.4082963 2.6758,5.43377778 C3.23878333,5.56059259 3.86268333,5.66459259 4.52738333,5.744 C4.52965,5.744 4.53135,5.74518519 4.53333333,5.74518519 C4.5339,5.74518519 4.53446667,5.74488889 4.53475,5.74488889 C4.98751667,5.79881481 5.45728333,5.84118519 5.93951667,5.87111111 C5.9432,5.87111111 5.94631667,5.87318519 5.95,5.87318519 C5.95198333,5.87318519 5.9534,5.872 5.95538333,5.872 C6.30246667,5.89333333 6.65408333,5.90903704 7.00995,5.91733333 C7.22783333,5.92296296 7.44175,5.92592593 7.65,5.92592593 C7.79875,5.92592593 7.95118333,5.92414815 8.10503333,5.92118519 C10.1637333,5.888 12.0717,5.632 13.3994,5.23525926 C13.4606,5.21718519 13.5203833,5.19851852 13.5793167,5.17985185 C13.6153,5.1682963 13.6521333,5.15703704 13.6869833,5.14548148 C13.78955,5.11111111 13.8878667,5.07585185 13.9827833,5.03911111 C13.9992167,5.03259259 14.0148,5.02607407 14.0312333,5.01955556 C14.1114167,4.98785185 14.1884833,4.95496296 14.26215,4.92148148 C14.2834,4.9117037 14.3052167,4.90222222 14.3259,4.89244444 C14.4043833,4.85540741 14.4803167,4.81748148 14.5505833,4.77807407 C14.5823167,4.76059259 14.6098,4.74251852 14.63955,4.72474074 C14.67355,4.7042963 14.70755,4.68355556 14.739,4.66251852 C14.75685,4.65066667 14.7781,4.63940741 14.7951,4.62755556 C16.0635833,4.91525926 16.3979167,5.22992593 16.4302167,5.35259259 Z M7.65,0.592592593 C12.3218833,0.592592593 14.6848833,1.36177778 14.7290833,1.80325926 C14.6948,2.00355556 14.2598833,2.26814815 13.4897833,2.51703704 C12.48735,2.84088889 10.9188167,3.13748148 8.93095,3.22933333 C8.82923333,3.23377778 8.7278,3.23822222 8.6241,3.24177778 C8.53938333,3.24474074 8.45438333,3.24740741 8.36796667,3.24977778 C8.13336667,3.25540741 7.89536667,3.25925926 7.65,3.25925926 C7.40463333,3.25925926 7.16663333,3.25540741 6.93203333,3.24977778 C6.8459,3.2477037 6.7609,3.24474074 6.6759,3.24177778 C6.57191667,3.23851852 6.47048333,3.23377778 6.36905,3.22933333 C4.38118333,3.13748148 2.81236667,2.84088889 1.81021667,2.51703704 C1.03983333,2.26814815 0.6052,2.00355556 0.570916667,1.80325926 C0.615116667,1.36177778 2.97811667,0.592592593 7.65,0.592592593 Z M0.566666667,3.85066667 L0.566666667,2.6237037 C0.79305,2.77274074 1.07978333,2.90874074 1.41666667,3.03140741 L1.41666667,4.45007407 C0.865583333,4.23407407 0.567233333,4.01748148 0.566666667,3.85066667 Z M1.93913333,7.95111111 C1.94338333,7.95585185 1.9499,7.96 1.95415,7.96474074 C2.34203333,8.37422222 3.14528333,8.696 4.14516667,8.936 C4.16811667,8.94162963 4.19248333,8.94696296 4.21571667,8.95259259 C4.2891,8.96977778 4.36361667,8.98666667 4.43898333,9.00296296 C5.35726667,9.20740741 6.45348333,9.35525926 7.64773333,9.42844444 C7.64858333,9.42844444 7.64915,9.42874074 7.64971667,9.42874074 C7.65028333,9.42874074 7.65056667,9.42844444 7.65085,9.42844444 C8.03448333,9.45185185 8.4269,9.46814815 8.82753333,9.47525926 C9.0049,9.47911111 9.17943333,9.48148148 9.35,9.48148148 C9.5455,9.48148148 9.7461,9.47911111 9.9501,9.47407407 C10.3207,9.46607407 10.6859167,9.45007407 11.0460333,9.42814815 C11.04745,9.42814815 11.0485833,9.42903704 11.05,9.42903704 C11.05255,9.42903704 11.0545333,9.42755556 11.0570833,9.42755556 C12.25445,9.35377778 13.3778667,9.20444444 14.3278833,8.98962963 C14.1221833,9.10222222 13.84055,9.21866667 13.4897833,9.33214815 C12.4315333,9.67407407 10.74145,9.98548148 8.5935,10.0577778 C8.52975,10.0598519 8.46685,10.0622222 8.40225,10.064 C8.33283333,10.0657778 8.26228333,10.066963 8.19173333,10.0684444 C8.01351667,10.0714074 7.83416667,10.0740741 7.65,10.0740741 C7.40463333,10.0740741 7.16663333,10.0702222 6.93203333,10.0645926 C6.8459,10.0625185 6.7609,10.0595556 6.6759,10.0565926 C6.57191667,10.0533333 6.47048333,10.0485926 6.36905,10.0441481 C4.38118333,9.9522963 2.81236667,9.6557037 1.81021667,9.33185185 C1.03105,9.08 0.595,8.81214815 0.569783333,8.61096296 C0.601233333,8.49955556 0.887683333,8.22074074 1.93913333,7.95111111 Z M0.566666667,10.6654815 L0.566666667,9.43851852 C0.79305,9.58755556 1.07978333,9.72355556 1.41666667,9.84622222 L1.41666667,11.2592593 L1.25488333,11.1934815 L1.25148333,11.197037 C0.80665,11.0041481 0.567233333,10.8148148 0.566666667,10.6654815 Z M1.41666667,13.9247407 L1.41666667,12.6977778 C1.64305,12.8468148 1.92978333,12.9828148 2.26666667,13.1054815 L2.26666667,14.5241481 C1.71558333,14.3081481 1.41723333,14.0915556 1.41666667,13.9247407 Z M14.7333333,14.5241481 L14.7333333,13.1057778 C15.0702167,12.9831111 15.35695,12.8471111 15.5833333,12.6980741 L15.5833333,13.9241481 C15.58305,14.090963 15.2844167,14.3078519 14.7333333,14.5241481 Z M15.57965,11.8746667 C15.5487667,12.0752593 15.1135667,12.3413333 14.3397833,12.5914074 C13.33735,12.9152593 11.7688167,13.2118519 9.78095,13.3037037 C9.67923333,13.3081481 9.5778,13.3125926 9.4741,13.3161481 C9.38938333,13.3191111 9.30438333,13.3217778 9.21796667,13.3241481 C8.98336667,13.3294815 8.74536667,13.3333333 8.5,13.3333333 C8.25463333,13.3333333 8.01635,13.3294815 7.78146667,13.3238519 C7.69618333,13.3217778 7.61203333,13.3188148 7.52788333,13.3158519 C7.42333333,13.3122963 7.32133333,13.3078519 7.21905,13.3034074 C5.23118333,13.2115556 3.66265,12.914963 2.66021667,12.5911111 C1.9108,12.349037 1.47786667,12.0918519 1.42346667,11.8933333 C1.5079,11.9241481 1.59545,11.9540741 1.68526667,11.9834074 C1.69433333,11.9863704 1.7034,11.9893333 1.71246667,11.992 C1.78896667,12.0165926 1.86716667,12.0402963 1.94735,12.0634074 C1.97766667,12.0722963 2.00826667,12.0811852 2.03915,12.0897778 C2.08448333,12.1025185 2.13095,12.1146667 2.17741667,12.1271111 C3.20931667,12.4035556 4.52653333,12.5994074 5.94858333,12.6874074 C5.94915,12.6874074 5.94943333,12.6877037 5.95,12.6877037 C5.95028333,12.6877037 5.95056667,12.6874074 5.95085,12.6874074 C6.39001667,12.7146667 6.83853333,12.7315556 7.29186667,12.7371852 C7.41256667,12.7395556 7.53241667,12.7407407 7.65,12.7407407 C7.80611667,12.7407407 7.96591667,12.7386667 8.1277,12.7357037 C8.54108333,12.7285926 8.94908333,12.7125926 9.34801667,12.6877037 C9.34886667,12.6877037 9.34943333,12.6882963 9.35028333,12.6882963 C9.3517,12.6882963 9.35255,12.6874074 9.35396667,12.6874074 C9.83988333,12.6568889 10.3102167,12.6133333 10.7621333,12.5591111 C10.7638333,12.5591111 10.76525,12.56 10.76695,12.56 C10.7731833,12.56 10.7782833,12.5567407 10.7845167,12.5561481 C11.2877167,12.4954074 11.76485,12.4207407 12.2077,12.3339259 C12.2989333,12.3164444 12.38875,12.2983704 12.4777167,12.2797037 C12.49755,12.2755556 12.5173833,12.2714074 12.5372167,12.266963 C13.3739,12.0874074 14.0981,11.8548148 14.5950667,11.5665185 C14.6222667,11.5511111 14.6477667,11.5351111 14.67355,11.5194074 C14.705,11.4998519 14.7350333,11.48 14.7642167,11.4598519 C14.7914167,11.4414815 14.8228667,11.4237037 14.8478,11.405037 C15.4071,11.6136296 15.5612333,11.8002963 15.57965,11.8746667 Z M15.5833333,8.00562963 L15.5833333,6.58725926 C15.9202167,6.46459259 16.20695,6.32859259 16.4333333,6.17955556 L16.4333333,7.40562963 C16.43305,7.57244444 16.1344167,7.78933333 15.5833333,8.00562963 Z" id="Shape"></path>
                    </g>
                </g>
            </g>
        </g>
    </g>
</svg>