<?xml version="1.0" encoding="UTF-8"?>
<svg width="33px" height="34px" viewBox="0 0 33 34" version="1.1" xmlns="http://www.w3.org/2000/svg" xmlns:xlink="http://www.w3.org/1999/xlink">
    <!-- Generator: Sketch 51.2 (57519) - http://www.bohemiancoding.com/sketch -->
    <title>Group 5</title>
    <desc>Created with Sketch.</desc>
    <defs></defs>
    <g id="account-page-dashboard" stroke="none" stroke-width="1" fill="none" fill-rule="evenodd">
        <g id="Desktop--dbot7" transform="translate(-140.000000, -491.000000)">
            <g id="Group-5" transform="translate(141.000000, 492.000000)">
                <ellipse id="Oval-2" stroke="#000000" cx="15.5" cy="16" rx="15.5" ry="16"></ellipse>
                <g id="Group-4" transform="translate(5.000000, 3.000000)">
                    <rect id="Rectangle" stroke="#000000" x="0.5" y="8.5" width="20" height="15" rx="4"></rect>
                    <path d="M2.15188563,17.85 L18.8481144,17.85 C18.7685436,14.6884562 16.1807159,12.15 13,12.15 L8,12.15 C4.8192841,12.15 2.23145643,14.6884562 2.15188563,17.85 Z" id="Rectangle-3" stroke="#000000" stroke-width="0.3" fill="#FFFFFF"></path>
                    <path d="M9,19 L12,19 C13.1045695,19 14,19.8954305 14,21 L7,21 L7,21 C7,19.8954305 7.8954305,19 9,19 Z" id="Rectangle-3" fill="#000000" transform="translate(10.500000, 20.000000) scale(-1, -1) translate(-10.500000, -20.000000) "></path>
                    <path d="M8,6 L13,6 C14.6568542,6 16,7.34314575 16,9 L5,9 L5,9 C5,7.34314575 6.34314575,6 8,6 Z" id="Rectangle-3" fill="#000000"></path>
                    <rect id="Rectangle-4" fill="#000000" x="10" y="2" width="1" height="5"></rect>
                    <ellipse id="Oval" fill="#000000" cx="10.5" cy="1.5" rx="2.5" ry="1.5"></ellipse>
                    <circle id="Oval" stroke="#000000" stroke-width="0.7" cx="7.5" cy="15.5" r="1.5"></circle>
                    <path d="M13.5,17 C14.3284271,17 15,16.3284271 15,15.5 C15,15.2769015 14.9512945,15.0651787 14.8639365,14.8748848 C14.62691,14.3585642 14.1053286,14 13.5,14 C12.6715729,14 12,14.6715729 12,15.5 C12,16.3284271 12.6715729,17 13.5,17 Z" id="Oval" stroke="#000000" stroke-width="0.7"></path>
                </g>
            </g>
        </g>
    </g>
</svg>