<svg xmlns="http://www.w3.org/2000/svg" id="Group_5759" width="42" height="42" data-name="Group 5759" viewBox="0 0 42 42">
    <defs>
        <style>
            .cls-1{fill:#0b0c19}.cls-2{fill:none;stroke:#fff;stroke-linecap:round;stroke-linejoin:round;stroke-width:2px}
        </style>
    </defs>
    <path id="twitter" d="M21 0a21 21 0 1 0 21 21A21.024 21.024 0 0 0 21 0z" class="cls-1"/>
    <g id="mail" transform="translate(12.459 13.73)">
        <path id="Path_3555" d="M3.754 4h14.035a1.759 1.759 0 0 1 1.754 1.754V16.28a1.759 1.759 0 0 1-1.754 1.754H3.754A1.759 1.759 0 0 1 2 16.28V5.754A1.759 1.759 0 0 1 3.754 4z" class="cls-2" data-name="Path 3555" transform="translate(-2 -4)"/>
        <path id="Path_3556" d="M19.543 6l-8.772 6.14L2 6" class="cls-2" data-name="Path 3556" transform="translate(-2 -4.246)"/>
    </g>
</svg>
