<?xml version="1.0" encoding="UTF-8"?>
<svg width="45px" height="59px" viewBox="0 0 45 59" version="1.1" xmlns="http://www.w3.org/2000/svg" xmlns:xlink="http://www.w3.org/1999/xlink">
    <!-- Generator: Sketch 51.2 (57519) - http://www.bohemiancoding.com/sketch -->
    <title>icon-men+id</title>
    <desc>Created with Sketch.</desc>
    <defs></defs>
    <g id="KYC" stroke="none" stroke-width="1" fill="none" fill-rule="evenodd">
        <g id="Desktop-kyc-documents,-step-1" transform="translate(-702.000000, -615.000000)">
            <g id="icon-men+id" transform="translate(702.000000, 615.000000)">
                <g id="Group-3">
                    <g id="boy" transform="translate(4.000000, 0.000000)" fill="#B6B6B6" fill-rule="nonzero">
                        <path d="M13.9323648,32.0201127 L13.9323648,35.0016273 C13.9360255,35.4636382 13.5907679,35.8570418 13.1254388,35.9165291 L5.74836735,36.9036655 C2.51595663,37.3016291 0.0802219388,40.0370073 0.0830459184,43.2637255 L0.0830434653,53.0618182 L1.9296148,53.0618182 L1.9296148,43.2627927 C1.92773214,40.9572982 3.66719898,39.0041673 5.98568622,38.71782 L13.368301,37.7297509 C14.7550842,37.5513927 15.7910663,36.3711818 15.7790383,34.99344 L15.7791419,32.0201127 L13.9323648,32.0201127 Z" id="Shape"></path>
                        <path d="M35.2609413,37.9778321 L27.8709005,36.8145692 C27.4082908,36.7434361 27.0630332,36.2813765 27.0676352,35.7278078 L27.0676352,32.2272818 L25.2209627,32.2272818 L25.2210663,35.7180468 C25.2090383,37.3498361 26.2450204,38.7391874 27.6272015,38.9492921 L35.023727,40.1136532 C37.3329056,40.4496744 39.0723724,42.7492357 39.0704898,45.464492 L39.0704898,57 L40.9170609,57 L40.9170587,45.4655901 C40.9197781,41.6657686 38.484148,38.4463584 35.2609413,37.9778321 Z" id="Shape"></path>
                        <path d="M30.5515893,14.6377036 L29.6282526,14.6377036 L29.6282526,16.4674036 L30.5515893,16.4674036 C31.57,16.4674036 32.3981582,17.2879964 32.3981582,18.2971036 C32.3981582,19.3062109 31.57,20.1268036 30.5515893,20.1268036 L29.6282526,20.1268036 L29.6282526,21.9565036 L30.5515893,21.9565036 C32.5884107,21.9565036 34.244727,20.3152145 34.244727,18.2971036 C34.2448316,16.2789927 32.5884107,14.6377036 30.5515893,14.6377036 Z" id="Shape"></path>
                        <path d="M10.239227,16.4675073 L11.1625638,16.4675073 L11.1625638,14.6378073 L10.239227,14.6378073 C8.20240561,14.6378073 6.54608929,16.2790964 6.54608929,18.2972073 C6.54608929,20.3154218 8.2025102,21.9566073 10.239227,21.9566073 L11.1625638,21.9566073 L11.1625638,20.1269073 L10.239227,20.1269073 C9.22081633,20.1269073 8.39265816,19.3063145 8.39265816,18.2972073 C8.39255357,17.2881 9.22081633,16.4675073 10.239227,16.4675073 Z" id="Shape"></path>
                        <path d="M27.8575128,36.7520455 L27.2665689,38.1151745 C26.0865638,40.8405 23.3915459,42.6015927 20.3990689,42.6015927 C20.3963495,42.6015927 20.3935255,42.6015927 20.3908061,42.6015927 C17.3984337,42.6015927 14.7042526,40.8405 13.5251888,38.1151745 L12.9342449,36.7520455 L11.2372423,37.4738727 L11.8281862,38.8360691 C13.2981199,42.2356527 16.6579235,44.4313964 20.3898648,44.4313964 C20.3925842,44.4313964 20.3963495,44.4313964 20.4000102,44.4313964 C24.1310102,44.4313964 27.492801,42.2357564 28.9635714,38.8370018 L29.5545153,37.4738727 L27.8575128,36.7520455 Z" id="Shape"></path>
                        <path d="M19.5940255,21.0783927 L20.3871454,14.7878727 L18.555324,14.5610127 L17.6319872,21.8799164 C17.5996684,22.1406655 17.6809362,22.4023473 17.8563367,22.5989455 C18.0317372,22.7956473 18.2838036,22.9081964 18.5488393,22.9081964 L21.3187449,22.9081964 L21.3187449,21.0784964 L19.5940255,21.0784964 L19.5940255,21.0783927 Z" id="Shape"></path>
                        <path d="M24.363727,23.1349527 C23.3204235,24.1541127 21.9677372,24.6947836 20.46925,24.7012091 L17.6255026,24.7012091 L17.6255026,26.5309091 L20.4627653,26.5309091 C20.4793954,26.5309091 20.4960255,26.5309091 20.5126556,26.5309091 C22.4525204,26.5309091 24.2787985,25.7880436 25.6600383,24.4376618 L24.363727,23.1349527 Z" id="Shape"></path>
                        <path d="M29.5895536,8.23370182 L29.5895536,24.5172545 C29.6006403,25.6379782 29.1962883,26.7211855 28.4520128,27.5664436 L24.4651811,32.0840564 C23.9398163,32.6768564 23.1818393,33.0162655 22.3887194,33.0171982 L18.3641301,33.0171982 C17.5691276,33.0162655 16.8120918,32.6768564 16.2886097,32.0858182 L12.3009413,27.5673764 C11.5567704,26.7210818 11.1523138,25.6379782 11.1625638,24.5089636 L11.1625638,8.23463455 C11.1635051,7.69396364 11.2318036,7.15236 11.3647398,6.62723455 L9.57444133,6.17983636 C9.40364286,6.85046727 9.31683163,7.5411 9.31589031,8.23370182 L9.31589031,24.5017091 C9.30208418,26.07066 9.86803061,27.5874818 10.9103929,28.77132 L14.9008852,33.29256 C15.7762143,34.2796964 17.038324,34.8459655 18.3641301,34.8468982 L22.390602,34.8468982 C23.7146301,34.8459655 24.9767398,34.2796964 25.8529056,33.2897618 L29.8424566,28.7694545 C30.8848189,27.5856164 31.4508699,26.0697273 31.4360179,24.5089636 L31.4360179,8.23370182 L29.5895536,8.23370182 Z" id="Shape"></path>
                        <ellipse id="Oval" cx="14.8555969" cy="16.5040909" rx="1.84656888" ry="1.8297"></ellipse>
                        <ellipse id="Oval" cx="25.0118827" cy="16.5040909" rx="1.84656888" ry="1.8297"></ellipse>
                        <path d="M23.1653138,0 L7.46932143,0 C7.20428571,0 6.95232398,0.112549091 6.7777602,0.309250909 C6.60235969,0.506885455 6.52015051,0.768463636 6.55341071,1.02828 C7.13598724,5.65750909 11.1255383,9.14860364 15.8343673,9.14860364 L30.5516939,9.14860364 C31.0623112,9.14860364 31.4750306,8.73872182 31.4750306,8.23370182 C31.474926,3.69422182 27.7475867,0 23.1653138,0 Z M15.8343673,7.31890364 C12.4126454,7.31890364 9.46367857,5.0217 8.58929082,1.8297 L23.1653138,1.8297 C26.4162372,1.8297 29.1131378,4.21934727 29.5627781,7.31890364 L15.8343673,7.31890364 Z" id="Shape"></path>
                        <path d="M13.9453342,7.17153273 C13.41725,10.3790782 9.9041148,11.9544545 9.86803061,11.97 L10.2032474,12.7267527 L10.6085408,13.64694 C10.790426,13.56828 15.075449,11.66904 15.7678469,7.46523818 L13.9453342,7.17153273 Z" id="Shape"></path>
                        <path d="M26.8150459,7.95740727 L25.0543469,8.50636909 C25.1069566,8.67560727 26.4051505,12.6588709 30.3134337,13.6918145 L30.7898495,11.9233636 C27.8768622,11.1539673 26.8261327,7.98943091 26.8150459,7.95740727 Z" id="Shape"></path>
                    </g>
                    <rect id="Rectangle-2" stroke="#B6B6B6" fill="#FFFFFF" x="0.5" y="43.5" width="23" height="15" rx="2"></rect>
                    <rect id="Rectangle" stroke="#B6B6B6" stroke-width="0.5" fill="#FFFFFF" transform="translate(23.455012, 47.883865) rotate(-100.000000) translate(-23.455012, -47.883865) " x="22.1639009" y="45.9127206" width="2.58222141" height="3.94228939" rx="1.29111071"></rect>
                    <rect id="Rectangle-3" stroke="#B6B6B6" stroke-width="0.3" fill="#FFFFFF" x="3.15" y="49.15" width="6.7" height="7.7"></rect>
                    <g id="boy" transform="translate(4.000000, 50.000000)" fill="#B6B6B6" fill-rule="nonzero">
                        <path d="M1.64357757,3.9 L1.64357757,4.19756051 C1.64401201,4.24367003 1.60303833,4.28293242 1.54781508,4.28886935 L0.672336142,4.38738733 C0.288727615,4.42710482 -0.000334846569,4.70010048 2.9111818e-07,5.02213275 L0,6 L0.219143101,6 L0.219143101,5.02203966 C0.218919676,4.79194716 0.425352079,4.59702119 0.70050012,4.56844322 L1.57663692,4.46983215 C1.74121435,4.45203168 1.86416023,4.33424451 1.8627328,4.1967434 L1.8627451,3.9 L1.64357757,3.9 Z" id="Shape"></path>
                        <path d="M4.32875617,4.38747802 L3.45173807,4.28886744 C3.39683755,4.28283744 3.35586387,4.24366833 3.35641002,4.19674194 L3.35641002,3.9 L3.1372549,3.9 L3.1372672,4.1959145 C3.13583977,4.33424237 3.25878565,4.45201862 3.42281693,4.46982934 L4.30060461,4.56853301 C4.57464794,4.59701776 4.78108034,4.79195311 4.78085692,5.02212722 L4.78085692,6 L5,6 L4.99999973,5.02222031 C5.00032246,4.70010688 4.7112724,4.42719531 4.32875617,4.38747802 Z" id="Shape"></path>
                        <path d="M3.84314259,1.9 L3.7254902,1.9 L3.7254902,2.1 L3.84314259,2.1 C3.97290939,2.1 4.07843404,2.18969697 4.07843404,2.3 C4.07843404,2.41030303 3.97290939,2.5 3.84314259,2.5 L3.7254902,2.5 L3.7254902,2.7 L3.84314259,2.7 C4.10267619,2.7 4.31372549,2.52059473 4.31372549,2.3 C4.31373882,2.07940527 4.10267619,1.9 3.84314259,1.9 Z" id="Shape"></path>
                        <path d="M1.15685741,2.1 L1.2745098,2.1 L1.2745098,1.9 L1.15685741,1.9 C0.897323812,1.9 0.68627451,2.07940527 0.68627451,2.3 C0.68627451,2.52060606 0.89733714,2.7 1.15685741,2.7 L1.2745098,2.7 L1.2745098,2.5 L1.15685741,2.5 C1.02709061,2.5 0.921565962,2.41030303 0.921565962,2.3 C0.921552635,2.18969697 1.02709061,2.1 1.15685741,2.1 Z" id="Shape"></path>
                        <path d="M3.32958936,4.4 L3.26000559,4.55975519 C3.12105974,4.87915626 2.80372082,5.08555176 2.45135602,5.08555176 C2.45103581,5.08555176 2.45070329,5.08555176 2.45038308,5.08555176 C2.09803059,5.08555176 1.7807902,4.87915626 1.64195519,4.55975519 L1.57237143,4.4 L1.37254902,4.48459628 L1.44213279,4.64424216 C1.61521778,5.04266454 2.01083536,5.3 2.45027224,5.3 C2.45059245,5.3 2.45103581,5.3 2.45146686,5.3 C2.8907929,5.3 3.28664447,5.04267669 3.459828,4.64435148 L3.52941176,4.48459628 L3.32958936,4.4 Z" id="Shape"></path>
                        <path d="M2.26786903,2.75886669 L2.35207361,1.92989583 L2.15759135,1.9 L2.05956181,2.86449226 C2.05613055,2.89885403 2.06475866,2.93333871 2.08338072,2.95924661 C2.10200278,2.98516817 2.12876436,3 2.15690288,3 L2.45098039,3 L2.45098039,2.75888035 L2.26786903,2.75888035 L2.26786903,2.75886669 Z" id="Shape"></path>
                        <path d="M2.88103687,3.2 C2.75373062,3.32004395 2.58867279,3.38372803 2.405824,3.38448486 L2.05882353,3.38448486 L2.05882353,3.6 L2.40503273,3.6 C2.40706197,3.6 2.40909121,3.6 2.41112045,3.6 C2.64782713,3.6 2.87067369,3.5125 3.03921569,3.35344238 L2.88103687,3.2 Z" id="Shape"></path>
                        <path d="M3.68420854,1.05075919 L3.68420854,3.03883996 C3.6856335,3.17567061 3.6336627,3.30792084 3.53800201,3.41111955 L3.02558015,3.96268094 C2.95805575,4.03505669 2.86063402,4.0764956 2.75869544,4.07660947 L2.24142063,4.07660947 C2.13924007,4.0764956 2.04193934,4.03505669 1.97465691,3.96289604 L1.4621275,3.41123342 C1.36648026,3.30790819 1.31449602,3.17567061 1.31581343,3.03782772 L1.31581343,1.05087306 C1.31593442,0.984861828 1.32471273,0.918736714 1.34179883,0.854623444 L1.11169429,0.8 C1.0897418,0.881878227 1.07858408,0.966198502 1.07846309,1.05075919 L1.07846309,3.036942 C1.07668861,3.22849732 1.14942891,3.41368813 1.28340226,3.55822452 L1.79629463,4.11022877 C1.90879945,4.23074957 2.07101664,4.29988612 2.24142063,4.3 L2.75893741,4.3 C2.92911288,4.29988612 3.09133006,4.23074957 3.20394242,4.10988713 L3.71671381,3.55799676 C3.85068717,3.41346037 3.92344091,3.22838344 3.921532,3.03782772 L3.921532,1.05075919 L3.68420854,1.05075919 Z" id="Shape"></path>
                        <ellipse id="Oval" cx="1.76470588" cy="2.15" rx="1" ry="1"></ellipse>
                        <ellipse id="Oval" cx="3.1372549" cy="2.15" rx="1" ry="1"></ellipse>
                        <path d="M2.87580536,0 L0.900492291,0 C0.867138012,0 0.83542907,0.013532557 0.813460526,0.0371833794 C0.79138668,0.0609463501 0.781040798,0.0923977072 0.785226536,0.123637229 C0.85854277,0.680241515 1.36062076,1.1 1.95321863,1.1 L3.80536832,1.1 C3.86962862,1.1 3.92156863,1.05071707 3.92156863,0.989995016 C3.92155546,0.444181884 3.45247636,0 2.87580536,0 Z M1.95321863,0.880002492 C1.52260093,0.880002492 1.15147863,0.603793783 1.04143847,0.219997508 L2.87580536,0.219997508 C3.28492837,0.219997508 3.62432856,0.507321356 3.680915,0.880002492 L1.95321863,0.880002492 Z" id="Shape"></path>
                        <path d="M1.65074798,0.9 C1.58932052,1.29627413 1.18066795,1.49090298 1.17647059,1.49282353 L1.21546346,1.58631606 L1.26260772,1.7 C1.28376485,1.690282 1.78220444,1.45564162 1.8627451,0.93628565 L1.65074798,0.9 Z" id="Shape"></path>
                        <path d="M3.34792917,1 L3.1372549,1.05743873 C3.14354985,1.07514639 3.29888364,1.49192149 3.76652446,1.6 L3.82352941,1.41496422 C3.4749795,1.33446107 3.34925574,1.00335068 3.34792917,1 Z" id="Shape"></path>
                    </g>
                    <rect id="Rectangle-4" stroke="#B6B6B6" fill="#000000" x="12.5" y="49.5" width="8" height="1" rx="0.5"></rect>
                    <rect id="Rectangle-4" stroke="#B6B6B6" fill="#000000" x="12.5" y="51.5" width="7" height="1" rx="0.5"></rect>
                    <rect id="Rectangle-4" stroke="#B6B6B6" fill="#000000" x="3.5" y="47.5" width="3" height="1" rx="0.5"></rect>
                    <rect id="Rectangle-4" stroke="#B6B6B6" fill="#000000" x="12.5" y="53.5" width="8" height="1" rx="0.5"></rect>
                    <rect id="Rectangle-4" stroke="#B6B6B6" fill="#000000" x="12.5" y="55.5" width="8" height="1" rx="0.5"></rect>
                </g>
                <rect id="Rectangle-14" stroke="#B6B6B6" stroke-width="0.5" fill="#FFFFFF" x="9.25" y="41.25" width="2.5" height="4.5" rx="1.25"></rect>
                <rect id="Rectangle-14" stroke="#B6B6B6" stroke-width="0.5" fill="#FFFFFF" x="12.25" y="41.25" width="2.5" height="4.5" rx="1.25"></rect>
                <rect id="Rectangle-14" stroke="#B6B6B6" stroke-width="0.5" fill="#FFFFFF" x="15.25" y="41.25" width="2.5" height="4.5" rx="1.25"></rect>
                <rect id="Rectangle-14" stroke="#B6B6B6" stroke-width="0.5" fill="#FFFFFF" x="18.25" y="41.25" width="2.5" height="4.5" rx="1.25"></rect>
            </g>
        </g>
    </g>
</svg>