<?xml version="1.0" encoding="UTF-8"?>
<svg width="49px" height="33px" viewBox="0 0 49 33" version="1.1" xmlns="http://www.w3.org/2000/svg" xmlns:xlink="http://www.w3.org/1999/xlink">
    <!-- Generator: Sketch 51.2 (57519) - http://www.bohemiancoding.com/sketch -->
    <title>card</title>
    <desc>Created with Sketch.</desc>
    <defs></defs>
    <g id="KYC" stroke="none" stroke-width="1" fill="none" fill-rule="evenodd">
        <g id="Desktop-kyc-documents,-step-1" transform="translate(-477.000000, -628.000000)" fill="#B6B6B6" fill-rule="nonzero">
            <g id="card" transform="translate(477.000000, 628.000000)">
                <path d="M44.7647629,5.45777447e-15 L4.23486328,5.45777447e-15 C1.89985652,5.45777447e-15 0,1.90603152 0,4.24900267 L0,28.7509972 C0,31.0939684 1.89985652,33 4.23486328,33 L44.7647629,33 C47.1001435,33 49,31.0939684 49,28.7509972 L49,4.24900267 C49,1.90603152 47.1001435,0 44.7647629,5.45777447e-15 Z M47.5446396,28.7509972 C47.5446396,30.2887245 46.2975083,31.5399093 44.7647629,31.5399093 L4.23486328,31.5399093 C2.70249174,31.5399093 1.45536039,30.2887245 1.45536039,28.7509972 L1.45536039,4.24900267 C1.45536039,2.7112755 2.70249174,1.46009067 4.23486328,1.46009067 L44.7647629,1.46009067 C46.2975083,1.46009067 47.5446396,2.7112755 47.5446396,4.24900267 L47.5446396,28.7509972 Z" id="Shape"></path>
                <path d="M43.5595581,6 L7.44118191,6 C6.64546007,6 6,7.11995892 6,8.50064197 C6,9.88132536 6.64546007,11 7.44118191,11 L43.5595581,11 C44.3552801,11 45,9.88132536 45,8.50064197 C45,7.11995892 44.3552801,6 43.5595581,6 Z" id="Shape"></path>
                <path d="M44.2107077,13 L39.7892922,13 C39.3532751,13 39,13.4474699 39,13.9997431 C39,14.5520164 39.3532751,15 39.7892922,15 L44.2107077,15 C44.6467248,15 45,14.5520164 45,13.9997431 C45,13.4474699 44.6467248,13 44.2107077,13 Z" id="Shape"></path>
                <path d="M32.7444192,18 L44.2555807,18 C44.666598,18 45,17.5520164 45,16.9997431 C45,16.4474699 44.666598,16 44.2555807,16 L32.7444192,16 C32.333402,16 32,16.4474699 32,16.9997431 C32,17.5520164 32.333402,18 32.7444192,18 Z" id="Shape"></path>
                <path d="M44.5198527,19 L32.480394,19 C32.2151534,19 32,19.4474698 32,19.9997431 C32,20.5520165 32.2151534,21 32.480394,21 L44.5198527,21 C44.7850934,21 45,20.5520165 45,19.9997431 C45,19.4474698 44.7850934,19 44.5198527,19 Z" id="Shape"></path>
                <path d="M32.7444192,25 L44.2555807,25 C44.666598,25 45,24.5520164 45,23.9997431 C45,23.4474699 44.666598,23 44.2555807,23 L32.7444192,23 C32.333402,23 32,23.4474699 32,23.9997431 C32,24.5520164 32.333402,25 32.7444192,25 Z" id="Shape"></path>
                <path d="M44.5198527,26 L32.480394,26 C32.2151534,26 32,26.4474698 32,26.9997431 C32,27.5520165 32.2151534,28 32.480394,28 L44.5198527,28 C44.7850934,28 45,27.5520165 45,26.9997431 C45,26.4474698 44.7850934,26 44.5198527,26 Z" id="Shape"></path>
            </g>
        </g>
    </g>
</svg>