<?xml version="1.0" encoding="UTF-8"?>
<svg width="49px" height="33px" viewBox="0 0 49 33" version="1.1" xmlns="http://www.w3.org/2000/svg" xmlns:xlink="http://www.w3.org/1999/xlink">
    <!-- Generator: Sketch 51.2 (57519) - http://www.bohemiancoding.com/sketch -->
    <title>Group 4</title>
    <desc>Created with Sketch.</desc>
    <defs></defs>
    <g id="KYC" stroke="none" stroke-width="1" fill="none" fill-rule="evenodd">
        <g id="Desktop-kyc-documents,-step-1" transform="translate(-255.000000, -628.000000)" fill="#B6B6B6" fill-rule="nonzero">
            <g id="Group-4" transform="translate(255.000000, 628.000000)">
                <g id="card">
                    <path d="M44.7647629,5.45777447e-15 L4.23486328,5.45777447e-15 C1.89985652,5.45777447e-15 0,1.90603152 0,4.24900267 L0,28.7509972 C0,31.0939684 1.89985652,33 4.23486328,33 L44.7647629,33 C47.1001435,33 49,31.0939684 49,28.7509972 L49,4.24900267 C49,1.90603152 47.1001435,0 44.7647629,5.45777447e-15 Z M47.5446396,28.7509972 C47.5446396,30.2887245 46.2975083,31.5399093 44.7647629,31.5399093 L4.23486328,31.5399093 C2.70249174,31.5399093 1.45536039,30.2887245 1.45536039,28.7509972 L1.45536039,4.24900267 C1.45536039,2.7112755 2.70249174,1.46009067 4.23486328,1.46009067 L44.7647629,1.46009067 C46.2975083,1.46009067 47.5446396,2.7112755 47.5446396,4.24900267 L47.5446396,28.7509972 Z" id="Shape"></path>
                    <path d="M21.2855774,6 L4.71442261,6 C4.31996738,6 4,6.33085524 4,6.7395811 L4,8.51389195 C4,8.92223787 4.31996738,9.25309312 4.71442261,9.25309312 C5.10887784,9.25309312 5.42884522,8.92223787 5.42884522,8.51389195 L5.42884522,7.47878226 L20.5715218,7.47878226 L20.5715218,25.5212177 L5.42884522,25.5212177 L5.42884522,11.4718363 C5.42884522,11.0634904 5.10887784,10.7322553 4.71442261,10.7322553 C4.31996738,10.7322553 4,11.0634904 4,11.4718363 L4,26.260419 C4,26.6687649 4.31996738,27 4.71442261,27 L21.2855774,27 C21.6800326,27 22,26.6687649 22,26.260419 L22,6.7395811 C22,6.33085524 21.6800326,6 21.2855774,6 Z" id="Shape"></path>
                    <path d="M7,23.3002157 C7,23.6867872 7.35196125,24 7.78585836,24 C8.21975557,24 8.57171683,23.6867872 8.57171683,23.3002157 C8.57171683,21.3702352 10.3339448,19.8002157 12.5002017,19.8002157 C14.6664587,19.8002157 16.4286868,21.3702352 16.4286868,23.3002157 C16.4286868,23.6867872 16.7802443,24 17.2141415,24 C17.6480387,24 18,23.6867872 18,23.3002157 C18,21.5194698 16.9283748,19.9580808 15.3296151,19.1000719 C16.9283748,18.2420631 18,16.6806739 18,14.899928 C18,12.1982431 15.5326385,10 12.5002017,10 C9.46736137,10 7,12.1982431 7,14.899928 C7,16.6806739 8.07202877,18.2420631 9.67078852,19.1000719 C8.07202877,19.9580808 7,21.5194698 7,23.3002157 Z M8.57171683,14.899928 C8.57171683,12.9699475 10.3339448,11.3999281 12.5002017,11.3999281 C14.6664587,11.3999281 16.4286868,12.9699475 16.4286868,14.899928 C16.4286868,16.8299085 14.6664587,18.3999281 12.5002017,18.3999281 C10.3339448,18.3999281 8.57171683,16.8299085 8.57171683,14.899928 Z" id="Shape"></path>
                </g>
                <path d="M27.9734713,10 L43.0265286,10 C43.5640128,10 44,9.77600822 44,9.49987154 C44,9.22373493 43.5640128,9 43.0265286,9 L27.9734713,9 C27.4359872,9 27,9.22373493 27,9.49987154 C27,9.77600822 27.4359872,10 27.9734713,10 Z" id="Shape"></path>
                <path d="M27.9734713,13 L43.0265286,13 C43.5640128,13 44,12.7760082 44,12.4998715 C44,12.2237349 43.5640128,12 43.0265286,12 L27.9734713,12 C27.4359872,12 27,12.2237349 27,12.4998715 C27,12.7760082 27.4359872,13 27.9734713,13 Z" id="Shape"></path>
                <path d="M27.9734713,19 L43.0265286,19 C43.5640128,19 44,18.7760082 44,18.4998715 C44,18.2237349 43.5640128,18 43.0265286,18 L27.9734713,18 C27.4359872,18 27,18.2237349 27,18.4998715 C27,18.7760082 27.4359872,19 27.9734713,19 Z" id="Shape"></path>
                <path d="M27.9734713,22 L43.0265286,22 C43.5640128,22 44,21.7760082 44,21.4998715 C44,21.2237349 43.5640128,21 43.0265286,21 L27.9734713,21 C27.4359872,21 27,21.2237349 27,21.4998715 C27,21.7760082 27.4359872,22 27.9734713,22 Z" id="Shape"></path>
            </g>
        </g>
    </g>
</svg>