<?xml version="1.0" encoding="UTF-8"?>
<svg width="57px" height="71px" viewBox="0 0 57 71" version="1.1" xmlns="http://www.w3.org/2000/svg" xmlns:xlink="http://www.w3.org/1999/xlink">
    <!-- Generator: Sketch 51.2 (57519) - http://www.bohemiancoding.com/sketch -->
    <title>Group 6</title>
    <desc>Created with Sketch.</desc>
    <defs></defs>
    <g id="KYC" stroke="none" stroke-width="1" fill="none" fill-rule="evenodd">
        <g id="Desktop-kyc-documents,-step-5" transform="translate(-699.000000, -609.000000)">
            <g id="Group-6" transform="translate(699.000000, 609.000000)">
                <g id="icon-men+id">
                    <g id="Group-3">
                        <g id="boy" transform="translate(4.499248, 0.000000)" fill="#B6B6B6" fill-rule="nonzero">
                            <path d="M15.6712915,35.8102606 L15.6712915,39.1446902 C15.6754091,39.6613883 15.2870592,40.1013582 14.7636514,40.1678869 L6.46583275,41.2718683 C2.82997829,41.716938 0.0902346018,44.7760967 0.093411048,48.3847541 L0.0934082888,59.3426248 L2.17045394,59.3426248 L2.17045394,48.383711 C2.16833631,45.8053203 4.12490953,43.6210017 6.73277187,43.3007602 L15.0368258,42.1957356 C16.5966962,41.9962656 17.7619814,40.6763558 17.7484521,39.1355338 L17.7485687,35.8102606 L15.6712915,35.8102606 Z" id="Shape"></path>
                            <path d="M39.661931,42.4731816 L31.3495242,41.1722259 C30.8291752,41.092673 30.4408253,40.5759204 30.4460017,39.956827 L30.4460017,36.0419518 L28.3688422,36.0419518 L28.3689588,39.9459107 C28.3554295,41.7708511 29.5207147,43.3246568 31.0754086,43.5596311 L39.3951095,44.861815 C41.9925014,45.2376103 43.9490746,47.8093653 43.9469569,50.8460204 L43.9469569,63.7469602 L46.0240024,63.7469602 L46.0239998,50.8472485 C46.0270586,46.5976507 43.2874326,42.9971663 39.661931,42.4731816 Z" id="Shape"></path>
                            <path d="M34.3647952,16.3703353 L33.3262149,16.3703353 L33.3262149,18.4166127 L34.3647952,18.4166127 C35.5103158,18.4166127 36.4418381,19.3343371 36.4418381,20.4628901 C36.4418381,21.5914431 35.5103158,22.5091676 34.3647952,22.5091676 L33.3262149,22.5091676 L33.3262149,24.555445 L34.3647952,24.555445 C36.6558364,24.555445 38.5188809,22.7198802 38.5188809,20.4628901 C38.5189986,18.2059 36.6558364,16.3703353 34.3647952,16.3703353 Z" id="Shape"></path>
                            <path d="M11.5172058,18.4167286 L12.555786,18.4167286 L12.555786,16.3704512 L11.5172058,16.3704512 C9.22616451,16.3704512 7.36311998,18.2060159 7.36311998,20.463006 C7.36311998,22.720112 9.22628215,24.5555609 11.5172058,24.5555609 L12.555786,24.5555609 L12.555786,22.5092835 L11.5172058,22.5092835 C10.3716851,22.5092835 9.44016287,21.591559 9.44016287,20.463006 C9.44004522,19.334453 10.3716851,18.4167286 11.5172058,18.4167286 Z" id="Shape"></path>
                            <path d="M31.3344655,41.1023014 L30.6697647,42.626781 C29.3424808,45.674697 26.3110923,47.6442463 22.9451181,47.6442463 C22.9420593,47.6442463 22.9388828,47.6442463 22.935824,47.6442463 C19.5699675,47.6442463 16.5395202,45.674697 15.213295,42.626781 L14.5485943,41.1023014 L12.6397854,41.9095697 L13.3044862,43.4330062 C14.9578852,47.2349908 18.7370327,49.6906396 22.9347652,49.6906396 C22.937824,49.6906396 22.9420593,49.6906396 22.9461769,49.6906396 C27.1428506,49.6906396 30.9242333,47.2351067 32.5785736,43.4340493 L33.2432744,41.9095697 L31.3344655,41.1023014 Z" id="Shape"></path>
                            <path d="M22.0395956,23.5733941 L22.9317064,16.5382795 L20.8712516,16.2845666 L19.8326714,24.4697922 C19.7963187,24.7614056 19.8877298,25.0540621 20.0850224,25.2739312 C20.282315,25.4939161 20.5658422,25.6197874 20.8639576,25.6197874 L23.9795807,25.6197874 L23.9795807,23.57351 L22.0395956,23.57351 L22.0395956,23.5733941 Z" id="Shape"></path>
                            <path d="M27.4046133,25.8733844 C26.2310929,27.01318 24.7095751,27.6178489 23.0240586,27.625035 L19.8253773,27.625035 L19.8253773,29.6713124 L23.0167646,29.6713124 C23.0354703,29.6713124 23.0541761,29.6713124 23.0728818,29.6713124 C25.2548651,29.6713124 27.3090846,28.8405156 28.8627197,27.3302922 L27.4046133,25.8733844 Z" id="Shape"></path>
                            <path d="M33.2826858,9.20830635 L33.2826858,27.4193061 C33.2951563,28.6726873 32.8403363,29.8841113 32.0031662,30.8294208 L27.51873,35.8817731 C26.9277934,36.5447414 26.0752117,36.9243256 25.1831009,36.9253687 L20.6561945,36.9253687 C19.761966,36.9243256 18.9104431,36.5447414 18.3216241,35.8837434 L13.8362468,30.8304639 C12.9991944,29.8839954 12.5442567,28.6726873 12.555786,27.4100339 L12.555786,9.20934949 C12.5568448,8.60468059 12.6336678,7.99896857 12.783196,7.41168521 L10.7694468,6.91132952 C10.5773306,7.66134148 10.4796843,8.43372284 10.4786255,9.20830635 L10.4786255,27.4019206 C10.4630962,29.1565847 11.0996795,30.8529492 12.2721411,32.1769156 L16.7606949,37.2333245 C17.7452756,38.337306 19.1649118,38.970603 20.6561945,38.9716462 L25.1852185,38.9716462 C26.6745012,38.970603 28.0941374,38.337306 29.0796592,37.2301951 L33.5671542,32.1748294 C34.7396158,30.850863 35.3763168,29.1555415 35.3596111,27.4100339 L35.3596111,9.20830635 L33.2826858,9.20830635 Z" id="Shape"></path>
                            <ellipse id="Oval" cx="16.7097542" cy="18.4576426" rx="2.07704289" ry="2.04627742"></ellipse>
                            <ellipse id="Oval" cx="28.1336665" cy="18.4576426" rx="2.07704289" ry="2.04627742"></ellipse>
                            <path d="M26.0566236,0 L8.4015826,0 C8.10346724,0 7.82005765,0.125871271 7.62370621,0.345856235 C7.42641361,0.566884332 7.33394373,0.859424927 7.37135521,1.14999516 C8.0266443,6.32717556 12.5141393,10.231503 17.8106869,10.231503 L34.3649128,10.231503 C34.9392613,10.231503 35.4034931,9.77310442 35.4034931,9.20830635 C35.4033754,4.13149844 31.2108194,0 26.0566236,0 Z M17.8106869,8.18522559 C13.9618929,8.18522559 10.6448595,5.61610719 9.66133764,2.04627742 L26.0566236,2.04627742 C29.7133014,2.04627742 32.7468076,4.7187818 33.2525684,8.18522559 L17.8106869,8.18522559 Z" id="Shape"></path>
                            <path d="M15.6858797,8.02041073 C15.0918842,11.607626 11.1402675,13.3694761 11.0996795,13.3868616 L11.4767355,14.2331895 L11.9326143,15.2622972 C12.137201,15.1743264 16.9570464,13.0502777 17.7358639,8.34888143 L15.6858797,8.02041073 Z" id="Shape"></path>
                            <path d="M30.1618862,8.89930745 L28.1814308,9.51324863 C28.2406069,9.70251915 29.7008309,14.1572726 34.0969149,15.3124835 L34.6327931,13.334705 C31.35623,12.474237 30.1743567,8.93512165 30.1618862,8.89930745 Z" id="Shape"></path>
                        </g>
                        <rect id="Rectangle-2" stroke="#B6B6B6" fill="#FFFFFF" x="17.3721805" y="48.7336957" width="39.1278195" height="21.7663043" rx="2"></rect>
                        <rect id="Rectangle-2" stroke="#B6B6B6" fill="#FFFFFF" x="0.5" y="48.5898121" width="25.9954887" height="16.8938836" rx="2"></rect>
                        <rect id="Rectangle-3" stroke="#B6B6B6" stroke-width="0.3" fill="#FFFFFF" x="3.52443609" y="54.9500184" width="7.57368421" height="8.64694178"></rect>
                        <g id="boy" transform="translate(4.499248, 55.918386)" fill="#B6B6B6" fill-rule="nonzero">
                            <path d="M1.84871583,4.36163412 L1.84871583,4.69441619 C1.84920449,4.74598358 1.80311679,4.78989337 1.74100102,4.79653305 L0.756251781,4.90671238 C0.324764295,4.95113114 -0.000376639449,5.25644067 3.27453231e-07,5.61659116 L0,6.71020634 L0.246494796,6.71020634 L0.246494796,5.61648706 C0.246243485,5.35915904 0.478441135,5.14116012 0.787930962,5.10919944 L1.77342018,4.998916 C1.95853885,4.97900853 2.09682986,4.84727916 2.09522426,4.69350236 L2.0952381,4.36163412 L1.84871583,4.36163412 Z" id="Shape"></path>
                            <path d="M4.86903702,4.9068138 L3.88255651,4.79653091 C3.82080374,4.78978716 3.77471605,4.74598169 3.77533037,4.69350073 L3.77533037,4.36163412 L3.52882206,4.36163412 L3.52883589,4.69257534 C3.52723029,4.84727677 3.6655213,4.97899392 3.85002566,4.99891286 L4.8373718,5.10929986 C5.14561903,5.14115628 5.37781669,5.35916569 5.37756537,5.61658498 L5.37756537,6.71020634 L5.62406015,6.71020634 L5.62405985,5.61668909 C5.62442285,5.25644783 5.29929588,4.95123234 4.86903702,4.9068138 Z" id="Shape"></path>
                            <path d="M4.32281301,2.12489867 L4.19047619,2.12489867 L4.19047619,2.34857222 L4.32281301,2.34857222 C4.46877627,2.34857222 4.58747167,2.44888641 4.58747167,2.57224576 C4.58747167,2.69560511 4.46877627,2.79591931 4.32281301,2.79591931 L4.19047619,2.79591931 L4.19047619,3.01959285 L4.32281301,3.01959285 C4.61473953,3.01959285 4.85213033,2.81895179 4.85213033,2.57224576 C4.85214532,2.32553973 4.61473953,2.12489867 4.32281301,2.12489867 Z" id="Shape"></path>
                            <path d="M1.30124714,2.34857222 L1.43358396,2.34857222 L1.43358396,2.12489867 L1.30124714,2.12489867 C1.00932062,2.12489867 0.771929825,2.32553973 0.771929825,2.57224576 C0.771929825,2.81896446 1.00933561,3.01959285 1.30124714,3.01959285 L1.43358396,3.01959285 L1.43358396,2.79591931 L1.30124714,2.79591931 C1.15528388,2.79591931 1.03658848,2.69560511 1.03658848,2.57224576 C1.03657349,2.44888641 1.15528388,2.34857222 1.30124714,2.34857222 Z" id="Shape"></path>
                            <path d="M3.74516216,4.92081798 L3.66689351,5.09948303 C3.51060554,5.45669088 3.15365891,5.68751694 2.75731474,5.68751694 C2.75695457,5.68751694 2.75658054,5.68751694 2.75622037,5.68751694 C2.35989005,5.68751694 2.00305424,5.45669088 1.84689095,5.09948303 L1.7686223,4.92081798 L1.54385965,5.01542773 L1.62212831,5.19397053 C1.8168164,5.63955326 2.26181181,5.92734893 2.75609569,5.92734893 C2.75645587,5.92734893 2.75695457,5.92734893 2.75743942,5.92734893 C3.25159863,5.92734893 3.69685724,5.63956685 3.89165616,5.19409278 L3.96992481,5.01542773 L3.74516216,4.92081798 Z" id="Shape"></path>
                            <path d="M2.55092637,3.08542746 L2.64564069,2.15833321 L2.42688471,2.12489867 L2.3166199,3.20355568 C2.31276038,3.24198478 2.32246538,3.28055134 2.3434117,3.3095259 C2.36435802,3.33851573 2.39445976,3.35510317 2.4261103,3.35510317 L2.75689223,3.35510317 L2.75689223,3.08544273 L2.55092637,3.08544273 L2.55092637,3.08542746 Z" id="Shape"></path>
                            <path d="M3.24062493,3.57877671 C3.09742932,3.71302999 2.9117703,3.78425221 2.70609978,3.78509863 L2.31578947,3.78509863 L2.31578947,4.0261238 L2.70520974,4.0261238 C2.70749226,4.0261238 2.70977478,4.0261238 2.71205729,4.0261238 C2.97830781,4.0261238 3.2289683,3.92826663 3.41854637,3.75038172 L3.24062493,3.57877671 Z" id="Shape"></path>
                            <path d="M4.14404208,1.17513516 L4.14404208,3.39854053 C4.1456449,3.55156751 4.08718752,3.6994719 3.97958723,3.814886 L3.40320895,4.43173446 C3.32725669,4.51267716 3.21767556,4.5590211 3.10301382,4.55914846 L2.52117689,4.55914846 C2.40624297,4.5590211 2.29679793,4.51267716 2.22111785,4.43197502 L1.6446186,3.81501336 C1.53703343,3.69945775 1.47856093,3.55156751 1.48004278,3.39740846 L1.48004278,1.17526252 C1.48017887,1.10143768 1.49005281,1.02748549 1.50927147,0.955783275 L1.25044711,0.894694178 C1.22575469,0.986264144 1.21320434,1.08056522 1.21306826,1.17513516 L1.21306826,3.39641791 C1.2110723,3.61064719 1.29289146,3.81775862 1.4435863,3.97940345 L2.02049381,4.59674719 C2.14704058,4.73153376 2.32950443,4.80885385 2.52117689,4.80898121 L3.10328599,4.80898121 C3.2947014,4.80885385 3.47716524,4.73153376 3.60383298,4.59636512 L4.18060441,3.97914874 C4.33129925,3.8175039 4.41313353,3.61051984 4.41098636,3.39740846 L4.41098636,1.17513516 L4.14404208,1.17513516 Z" id="Shape"></path>
                            <ellipse id="Oval" cx="1.98496241" cy="2.4044906" rx="1" ry="1"></ellipse>
                            <ellipse id="Oval" cx="3.52882206" cy="2.4044906" rx="1" ry="1"></ellipse>
                            <path d="M3.23474046,0 L1.01288456,0 C0.975367268,0 0.939700668,0.0151343749 0.914990185,0.0415846914 C0.890161258,0.0681604308 0.878524086,0.103334613 0.883232255,0.138271886 C0.965699236,0.760760154 1.5304426,1.2302045 2.19700381,1.2302045 L4.28032407,1.2302045 C4.35260482,1.2302045 4.41102757,1.17508806 4.41102757,1.10717847 C4.41101276,0.496758682 3.88338695,0 3.23474046,0 Z M2.19700381,0.984166383 C1.71263984,0.984166383 1.29519702,0.675263478 1.17142252,0.246038112 L3.23474046,0.246038112 C3.69492695,0.246038112 4.07668837,0.567371829 4.14033748,0.984166383 L2.19700381,0.984166383 Z" id="Shape"></path>
                            <path d="M1.85678119,1.00653095 C1.78768685,1.44971114 1.32802951,1.66737777 1.32330827,1.66952566 L1.36716792,1.77408468 L1.42019636,1.90122513 C1.44399415,1.89035683 2.004645,1.62794261 2.0952381,1.04711165 L1.85678119,1.00653095 Z" id="Shape"></path>
                            <path d="M3.76579101,1.11836772 L3.52882206,1.18260535 C3.53590269,1.20240902 3.71062401,1.66851684 4.23663203,1.78938836 L4.30075188,1.58245031 C3.90869875,1.49241819 3.76728315,1.12211502 3.76579101,1.11836772 Z" id="Shape"></path>
                        </g>
                        <rect id="Rectangle-4" stroke="#B6B6B6" fill="#000000" x="13.9977444" y="55.3000184" width="9.12330827" height="1" rx="0.5"></rect>
                        <rect id="Rectangle-4" stroke="#B6B6B6" fill="#000000" x="13.9977444" y="57.5367539" width="7.99849624" height="1" rx="0.5"></rect>
                        <rect id="Rectangle-4" stroke="#B6B6B6" fill="#000000" x="3.87443609" y="53.063283" width="3.49924812" height="1" rx="0.5"></rect>
                        <rect id="Rectangle-4" stroke="#B6B6B6" fill="#000000" x="13.9977444" y="59.7734893" width="9.12330827" height="1" rx="0.5"></rect>
                        <rect id="Rectangle-4" stroke="#B6B6B6" fill="#000000" x="13.9977444" y="62.0102248" width="9.12330827" height="1" rx="0.5"></rect>
                    </g>
                    <rect id="Rectangle-14" stroke="#B6B6B6" stroke-width="0.5" fill="#FFFFFF" x="17.1221805" y="46.1684783" width="2.95112782" height="4.90217391" rx="1.47556391"></rect>
                    <rect id="Rectangle-14" stroke="#B6B6B6" stroke-width="0.5" fill="#FFFFFF" x="20.5733083" y="46.1684783" width="2.95112782" height="4.90217391" rx="1.47556391"></rect>
                    <rect id="Rectangle-14" stroke="#B6B6B6" stroke-width="0.5" fill="#FFFFFF" x="24.0244361" y="46.1684783" width="2.95112782" height="4.90217391" rx="1.47556391"></rect>
                    <rect id="Rectangle-14" stroke="#B6B6B6" stroke-width="0.5" fill="#FFFFFF" x="27.4755639" y="46.1684783" width="2.95112782" height="4.90217391" rx="1.47556391"></rect>
                </g>
                <text id="DECOIN" font-family="LucidaGrande-Bold, Lucida Grande" font-size="5" font-weight="bold" letter-spacing="0.0681818128" fill="#5C5C5C">
                    <tspan x="28" y="60">DECOIN</tspan>
                </text>
                <text id="MM/DD/YYYY" font-family="LucidaGrande-Bold, Lucida Grande" font-size="4" font-weight="bold" letter-spacing="-0.480000019" fill="#5C5C5C">
                    <tspan x="28" y="66">MM/DD/YYY</tspan>
                    <tspan x="50.0471873" y="66" letter-spacing="-0.640000045">Y</tspan>
                </text>
                <text id="ID" font-family="Helvetica-Bold, Helvetica" font-size="5" font-weight="bold" letter-spacing="0.0681818128" fill="#5C5C5C">
                    <tspan x="11" y="54">ID</tspan>
                </text>
            </g>
        </g>
    </g>
</svg>