<?xml version="1.0" encoding="UTF-8"?>
<svg width="30px" height="30px" viewBox="0 0 24 24" version="1.1" xmlns="http://www.w3.org/2000/svg" xmlns:xlink="http://www.w3.org/1999/xlink">
    <!-- Generator: Sketch 51.2 (57519) - http://www.bohemiancoding.com/sketch -->
    <title>line (1)</title>
    <desc>Created with Sketch.</desc>
    <defs></defs>
    <g id="Affilate" stroke="none" stroke-width="1" fill="none" fill-rule="evenodd">
        <g id="Mobile" transform="translate(-72.000000, -423.000000)" fill="#000000" fill-rule="nonzero">
            <g id="line-(1)" transform="translate(72.000000, 423.000000)">
                <path d="M9.60902696,9 L9.39038687,9 C9.17467761,9 9,9.14678449 9,9.32744232 L9,12.6725577 C9,12.8532155 9.17467761,13 9.39038687,13 L9.60902696,13 C9.82473623,13 10,12.8532155 10,12.6725577 L10,9.32744232 C10,9.14678449 9.82473623,9 9.60902696,9 Z" id="Shape"></path>
                <path d="M14.4872257,9 C14.3453562,9 14.2173129,9.04712797 14.124737,9.12272908 C14.03156,9.19833019 13.9744515,9.30338628 13.9744515,9.41875161 L13.9744515,11.3505073 C13.9744515,11.3505073 11.9263601,9.16887521 11.8951007,9.14040206 C11.7971145,9.05056438 11.6528404,8.99558175 11.4929366,9.00049092 C11.2140066,9.00883649 11,9.20814851 11,9.43593368 L11,12.5812344 C11,12.812456 11.2296363,12.9999861 11.5127743,12.9999861 C11.6546438,12.9999861 11.7826871,12.9528581 11.875263,12.877257 C11.96844,12.8016559 12.0255485,12.6965998 12.0255485,12.5812344 L12.0255485,10.6607699 C12.0255485,10.6607699 14.1048993,12.8615477 14.1355576,12.8851116 C14.22633,12.9553127 14.3483619,12.9990042 14.4824166,12.9999861 C14.767358,13.0019497 15,12.7962558 15,12.5635615 L15,9.41875161 C15,9.18748094 14.7703637,9 14.4872257,9 Z" id="Shape"></path>
                <path d="M7.50009768,12.1620029 L5.99980465,12.1620029 L5.99980465,9.41875307 C5.99980465,9.18753068 5.7759328,9 5.49990232,9 C5.36159406,9 5.23676499,9.04712813 5.14651299,9.1227295 C5.05567494,9.19833088 5,9.30338733 5,9.41875307 L5,12.5812469 C5,12.8124693 5.22387185,13 5.49990232,13 L7.50009768,13 C7.77612815,13 8,12.8124693 8,12.5812469 C8,12.4653903 7.94373901,12.3608247 7.85348701,12.2847324 C7.76323501,12.2086402 7.63781989,12.1620029 7.50009768,12.1620029 Z" id="Shape"></path>
                <path d="M18.5000977,9.83750614 C18.7761282,9.83750614 19,9.64997545 19,9.41875307 C19,9.18753068 18.7761282,9 18.5000977,9 L16.4999023,9 C16.2238718,9 16,9.18753068 16,9.41875307 L16,12.5812469 C16,12.8124693 16.2238718,13 16.4999023,13 L18.5000977,13 C18.7761282,13 19,12.8124693 19,12.5812469 C19,12.4653903 18.943739,12.3608247 18.853487,12.2847324 C18.763235,12.2086402 18.6378199,12.1620029 18.5000977,12.1620029 L16.9998046,12.1620029 L16.9998046,11.4187531 L18.5000977,11.4187531 C18.7761282,11.4187531 19,11.2312224 19,11 C19,10.8841433 18.943739,10.7795778 18.853487,10.7039764 C18.763235,10.6278841 18.6378199,10.5812469 18.5000977,10.5812469 L16.9998046,10.5812469 L16.9998046,9.83750614 L18.5000977,9.83750614 Z" id="Shape"></path>
                <path d="M0,12 L0,12 C8.11624501e-16,18.627417 5.372583,24 12,24 L12,24 C18.627417,24 24,18.627417 24,12 L24,12 C24,5.372583 18.627417,5.58920087e-16 12,1.77635684e-15 L12,0 C5.372583,1.21743675e-15 -8.11624501e-16,5.372583 0,12 Z M20.7801005,11.0335615 C20.7711479,11.1736441 20.7511361,11.3526971 20.7105858,11.5649276 C20.6026274,12.2416425 20.3730183,12.8878132 20.0391371,13.4897472 C19.8822024,13.7735989 19.1117479,14.8531831 18.8752927,15.1375614 C17.5766318,16.7021686 15.4021912,18.5074441 11.7658355,20.2626901 C11.4261615,20.4264709 11.039091,20.1536784 11.0806945,19.779247 L11.2639605,18.1298529 C11.2934516,17.8670663 11.1033395,17.6295578 10.8405529,17.6016466 C6.53590824,17.151381 3.21394858,14.221758 3.21394858,10.6754555 C3.21394858,6.81686346 7.1462683,3.68870233 11.9975512,3.68870233 C16.7119112,3.68870233 20.5589174,6.64307673 20.7722011,10.3510536 C20.777994,10.4584854 20.7953727,10.8018985 20.7801005,11.0335615 Z" id="Shape"></path>
            </g>
        </g>
    </g>
</svg>