<?xml version="1.0" encoding="UTF-8"?>
<svg width="330px" height="330px" viewBox="0 0 330 90" version="1.1" xmlns="http://www.w3.org/2000/svg" xmlns:xlink="http://www.w3.org/1999/xlink">
    <!-- Generator: Sketch 51.2 (57519) - http://www.bohemiancoding.com/sketch -->
    <title>Artboard 2</title>
    <desc>Created with Sketch.</desc>
    <defs></defs>
    <g id="Artboard-2" stroke="none" stroke-width="1" fill="none" fill-rule="evenodd">
        <g id="Group-2" transform="translate(4.000000, 2.000000)" fill="#FFFFFF">
            <polyline id="Path-5" points="44.8943768 8.19455876 69 31.8349267 60.7464484 39.7873158 42.6658793 21.6230565 42.6658793 36.6221973 49.9870924 36.6221973 49.9870924 48.002632 42.6658793 48.002632 42.6658793 63.223185 60.7464484 45.3157024 69 53.1566166 36.5666708 85 0 42.5288297 36.5666708 0 44.8943768 8.19455876 31.8617215 21.6230565 31.8617215 63.223185 14.5157455 42.5288297 31.8617215 21.6230565"></polyline>
            <g id="Group" transform="translate(86.000000, 26.000000)" fill-rule="nonzero">
                <path d="M28.6,16.8 C28.7,24.7 23.9,32.6 13,32.6 C9.2,32.6 4.6,32.6 0.8,32.6 L0.8,1.6 C4.6,1.6 9.2,1.6 13,1.6 C23.7,1.6 28.4,9.2 28.6,16.8 Z M6.6,27 L13,27 C20.1,27 22.9,21.8 22.7,16.8 C22.6,12 19.7,7.1 13,7.1 L6.6,7.1 L6.6,27 Z" id="Shape"></path>
                <path d="M69.8,32.7 L46.5,32.7 C46.5,22.3 46.5,11.9 46.5,1.6 L69.8,1.6 L69.8,7.3 L52.3,7.3 L52.3,14.5 L69.1,14.5 L69.1,20 L52.3,20 L52.3,27 L69.8,27 L69.8,32.7 Z" id="Shape"></path>
                <path d="M116,28.8 C112.8,32 108.7,33.4 104.2,33.4 C92.6,33.4 87.8,25.4 87.7,17.4 C87.7,9.3 92.9,1 104.2,1 C108.4,1 112.4,2.6 115.6,5.8 L111.7,9.6 C109.7,7.6 106.9,6.7 104.2,6.7 C96.7,6.7 93.4,12.3 93.5,17.5 C93.5,22.7 96.5,28 104.2,28 C106.9,28 110,26.9 112,24.8 L116,28.8 Z" id="Shape"></path>
                <path d="M164.1,17.3 C164,25.3 159.1,33.4 148.1,33.4 C137.1,33.4 132.1,25.5 132.1,17.4 C132.1,9.3 137.3,1 148.1,1 C158.8,0.9 164.2,9.2 164.1,17.3 Z M137.9,17.4 C138,22.5 140.8,28 148.1,28 C155.4,28 158.2,22.5 158.3,17.4 C158.4,12.2 155.5,6.3 148.1,6.3 C140.7,6.3 137.8,12.2 137.9,17.4 Z" id="Shape"></path>
                <polygon id="Shape" points="182.6 32.7 182.6 1.6 188.4 1.6 188.4 32.7"></polygon>
                <polygon id="Shape" points="228.6 1.5 234.5 1.5 234.5 32.6 230.9 32.6 230.9 32.6 214.5 11.6 214.5 32.6 208.6 32.6 208.6 1.6 213.4 1.6 228.6 20.9"></polygon>
            </g>
        </g>
    </g>
</svg>