<?xml version="1.0" encoding="utf-8"?>
<!-- Generator: Adobe Illustrator 22.0.0, SVG Export Plug-In . SVG Version: 6.00 Build 0)  -->
<svg version="1.1" id="Layer_1" xmlns="http://www.w3.org/2000/svg" xmlns:xlink="http://www.w3.org/1999/xlink" x="0px" y="0px"
	 viewBox="0 0 321.5 85.5" style="enable-background:new 0 0 321.5 85.5;" xml:space="preserve">
<g>
	<path style="fill:#FFFFFF;" d="M115.6,44.8c0.1,7.9-4.7,15.8-15.6,15.8c-3.8,0-8.4,0-12.2,0V29.6c3.8,0,8.4,0,12.2,0
		C110.7,29.6,115.4,37.2,115.6,44.8z M93.6,55h6.4c7.1,0,9.9-5.2,9.7-10.2c-0.1-4.8-3-9.7-9.7-9.7h-6.4V55z"/>
	<path style="fill:#FFFFFF;" d="M156.8,60.7h-23.3c0-10.4,0-20.8,0-31.1h23.3v5.7h-17.5v7.2h16.8v5.5h-16.8v7h17.5V60.7z"/>
	<path style="fill:#FFFFFF;" d="M203,56.8c-3.2,3.2-7.3,4.6-11.8,4.6c-11.6,0-16.4-8-16.5-16c0-8.1,5.2-16.4,16.5-16.4
		c4.2,0,8.2,1.6,11.4,4.8l-3.9,3.8c-2-2-4.8-2.9-7.5-2.9c-7.5,0-10.8,5.6-10.7,10.8c0,5.2,3,10.5,10.7,10.5c2.7,0,5.8-1.1,7.8-3.2
		L203,56.8z"/>
	<path style="fill:#FFFFFF;" d="M251.1,45.3c-0.1,8-5,16.1-16,16.1s-16-7.9-16-16s5.2-16.4,16-16.4
		C245.8,28.9,251.2,37.2,251.1,45.3z M224.9,45.4c0.1,5.1,2.9,10.6,10.2,10.6s10.1-5.5,10.2-10.6c0.1-5.2-2.8-11.1-10.2-11.1
		S224.8,40.2,224.9,45.4z"/>
	<path style="fill:#FFFFFF;" d="M269.6,60.7V29.6h5.8v31.1H269.6z"/>
	<path style="fill:#FFFFFF;" d="M315.6,29.5h5.9v31.1h-3.6v0l-16.4-21v21h-5.9V29.6h4.8l15.2,19.3V29.5z"/>
</g>
<g>
	<path style="fill:#FFFFFF;" d="M41.9,65.2V47.8h7.7V37.7h-7.7V20.3l18.9,18.9l7.1-7.1L36.6,0.7l-35.9,42l35.9,42l31.3-31.3
		l-7.1-7.1L41.9,65.2z M31.8,21.8v41.9l-17.9-21L31.8,21.8z"/>
	<g>
		<path style="fill:#FFFFFF;" d="M0.3,42.8L36.6,0.4l31.7,31.7l-7.5,7.5L42.1,20.9v16.6h7.7v10.6h-7.7v16.6L60.8,46l7.5,7.5
			L36.6,85.2L0.3,42.8z M31.6,63.1V22.5L14.2,42.8L31.6,63.1z"/>
		<path style="fill:#FFFFFF;" d="M36.6,0.7l31.3,31.3l-7.1,7.1L41.9,20.3v17.4h7.7v10.1h-7.7v17.4l18.9-18.9l7.1,7.1L36.6,84.8
			l-35.9-42L36.6,0.7 M31.8,63.7V21.8l-17.9,21L31.8,63.7 M36.5,0l-0.4,0.4l-35.9,42L0,42.8l0.3,0.3l35.9,42l0.4,0.4l0.4-0.4
			l31.3-31.3l0.4-0.4l-0.4-0.4L61.1,46l-0.4-0.4L60.4,46l-18,18V48.3h7.2h0.5v-0.5V37.7v-0.5h-0.5h-7.2V21.5l18,18l0.4,0.4l0.4-0.4
			l7.1-7.1l0.4-0.4l-0.4-0.4L36.9,0.4L36.5,0L36.5,0z M14.6,42.8l16.8-19.6v39.2L14.6,42.8L14.6,42.8z"/>
	</g>
</g>
</svg>
