<svg xmlns="http://www.w3.org/2000/svg" width="42" height="42" viewBox="0 0 42 42">
    <defs>
        <style>
            .cls-1{fill:#0b0c19}
        </style>
    </defs>
    <path id="Exclusion_66" d="M21 42A21 21 0 0 1 6.151 6.151a21 21 0 1 1 29.7 29.7A20.862 20.862 0 0 1 21 42zm-1.17-13.482l6.738 4.57a1.06 1.06 0 0 0 1.637-.679l4.161-21.834a1.112 1.112 0 0 0 .018-.121 1.152 1.152 0 0 0 0-.17 1.051 1.051 0 0 0-.259-.621l-.056-.059a1.061 1.061 0 0 0-.679-.3h-.128a1.057 1.057 0 0 0-.35.083L6.259 19.2a1.065 1.065 0 0 0-.668.993 1.053 1.053 0 0 0 .681.984l6.484 2.479 1.815 6.877a1.06 1.06 0 0 0 1.645.59l3.614-2.6zm6.593 1.909l-6-4.07-.028-.019-2.426-1.646 11.692-11.254-3.237 16.988zM16.228 28.5l-.8-3.044a1.039 1.039 0 0 0 .267.261l2.265 1.533-1.731 1.25zm-1-3.778l-.563-2.134a1.061 1.061 0 0 0-.647-.72l-4.452-1.7L26.7 13.347 15.552 24.07a1.07 1.07 0 0 0-.319.648z" class="cls-1" data-name="Exclusion 66"/>
</svg>
