<?xml version="1.0" encoding="UTF-8"?>
<svg width="30px" height="30px" viewBox="0 0 24 24" version="1.1" xmlns="http://www.w3.org/2000/svg" xmlns:xlink="http://www.w3.org/1999/xlink">
    <!-- Generator: Sketch 51.2 (57519) - http://www.bohemiancoding.com/sketch -->
    <g id="Affilate" stroke="none" stroke-width="1" fill="none" fill-rule="evenodd">
        <g id="Mobile" transform="translate(-110.000000, -423.000000)" fill="#000000" fill-rule="nonzero">
            <g id="telegram" transform="translate(110.000000, 423.000000)">
                <path d="M3.27272727,3.27272727 C-1.09090909,7.63636364 -1.09090909,16.3636364 3.27272727,20.7272727 C7.63636364,25.0909091 16.3636364,25.0909091 20.7272727,20.7272727 C25.0909091,16.3636364 25.0909091,7.63636364 20.7272727,3.27272727 C16.3636364,-1.09090909 7.63636364,-1.09090909 3.27272727,3.27272727 Z M18.0348228,7.13497702 L15.9840863,16.9991353 C15.935789,17.2320288 15.6626925,17.3375616 15.470002,17.1975417 L12.6705614,15.1651037 C12.5006194,15.0416943 12.2688767,15.0482541 12.106185,15.1809087 L10.5540731,16.4461139 C10.3739652,16.5934226 10.1025183,16.5113287 10.0335441,16.2894833 L8.95581219,12.8234709 L6.17140939,11.7842925 C5.88856903,11.6783377 5.88615225,11.2790314 6.16818701,11.1703912 L17.5954286,6.76206354 C17.8376823,6.66838442 18.0876084,6.880601 18.0348228,7.13497702 Z" id="Shape"></path>
                <path d="M14.85047,9.0148 L9.26723615,12.2832151 C9.05324118,12.4087262 8.95252145,12.6543615 9.02155717,12.8843218 L9.6252064,14.9003938 C9.66814709,15.0432258 9.88619604,15.0286359 9.90709567,14.8810527 L10.0639807,13.7754697 C10.0936181,13.5673195 10.1980375,13.3754427 10.3600392,13.2321991 L14.9677599,9.16114862 C15.0540349,9.08520596 14.9507568,8.95625307 14.85047,9.0148 Z" id="Shape"></path>
            </g>
        </g>
    </g>
</svg>