<svg xmlns="http://www.w3.org/2000/svg" width="31.998" height="31.998" viewBox="0 0 31.998 31.998">
    <defs>
        <style>
            .cls-1{fill:#fff}
        </style>
    </defs>
    <path id="Exclusion_66" d="M-3395 16883a15.9 15.9 0 0 1-11.314-4.687A15.893 15.893 0 0 1-3411 16867a15.9 15.9 0 0 1 4.685-11.314A15.89 15.89 0 0 1-3395 16851a15.89 15.89 0 0 1 11.313 4.686A15.893 15.893 0 0 1-3379 16867a15.887 15.887 0 0 1-4.687 11.311A15.9 15.9 0 0 1-3395 16883zm-.894-10.27l5.135 3.48a.837.837 0 0 0 .453.135.756.756 0 0 0 .309-.059.808.808 0 0 0 .487-.6l3.169-16.635c0-.029.009-.059.013-.094a.613.613 0 0 0 0-.127.825.825 0 0 0-.195-.475.084.084 0 0 1-.022-.02.262.262 0 0 0-.025-.021.8.8 0 0 0-.517-.234h-.1a.883.883 0 0 0-.267.068l-18.783 7.471a.8.8 0 0 0-.508.758.811.811 0 0 0 .517.75l4.94 1.889 1.385 5.238a.806.806 0 0 0 .509.555.8.8 0 0 0 .274.047.817.817 0 0 0 .471-.148l2.75-1.98zm5.025 1.453l-4.571-3.1a.054.054 0 0 1-.016-.014h-.005l-1.852-1.25 8.91-8.576-2.466 12.943zm-7.767-1.471l-.614-2.32a.82.82 0 0 0 .2.2l1.729 1.174-1.317.947zm-.76-2.883l-.431-1.621a.8.8 0 0 0-.491-.551l-3.394-1.3 13.05-5.189-8.491 8.168a.814.814 0 0 0-.241.49z" class="cls-1" data-name="Exclusion 66" transform="translate(3410.998 -16851.002)"/>
</svg>
