<?xml version="1.0" encoding="UTF-8"?>
<svg width="20px" height="18px" viewBox="0 0 20 18" version="1.1" xmlns="http://www.w3.org/2000/svg" xmlns:xlink="http://www.w3.org/1999/xlink">
    <!-- Generator: Sketch 51.2 (57519) - http://www.bohemiancoding.com/sketch -->
    <title>upload</title>
    <desc>Created with Sketch.</desc>
    <defs></defs>
    <g id="KYC" stroke="none" stroke-width="1" fill="none" fill-rule="evenodd">
        <g id="Desktop-kyc-documents,-step-1" transform="translate(-749.000000, -698.000000)" fill="#000000" fill-rule="nonzero">
            <g id="site-logo" transform="translate(96.000000, 191.000000)">
                <g id="Group">
                    <g id="Group-2" transform="translate(535.000000, 354.000000)">
                        <g id="upload" transform="translate(118.000000, 153.000000)">
                            <path d="M19.2307692,12 L17.6923077,12 C17.2307692,12 16.9230769,12.3 16.9230769,12.75 L16.9230769,14.625 C16.9230769,14.85 16.7692308,15 16.5384615,15 L3.46153846,15 C3.23076923,15 3.07692308,14.85 3.07692308,14.625 L3.07692308,12.75 C3.07692308,12.3 2.76923077,12 2.30769231,12 L0.769230769,12 C0.307692308,12 0,12.3 0,12.75 L0,17.25 C0,17.7 0.307692308,18 0.769230769,18 L19.2307692,18 C19.6923077,18 20,17.7 20,17.25 L20,12.75 C20,12.3 19.6923077,12 19.2307692,12 Z" id="Shape"></path>
                            <path d="M6.33571429,6.7826087 C6.49285714,6.93167702 6.65,7.00621118 6.88571429,7.00621118 C7.12142857,7.00621118 7.27857143,6.93167702 7.43571429,6.7826087 L8.22142857,6.03726708 C8.45714286,5.8136646 8.92857143,5.96273292 8.92857143,6.33540373 L8.92857143,11.2546584 C8.92857143,11.7018634 9.24285714,12 9.71428571,12 L11.2857143,12 C11.7571429,12 12.0714286,11.7018634 12.0714286,11.2546584 L12.0714286,6.33540373 C12.0714286,6.03726708 12.4642857,5.8136646 12.7785714,6.03726708 L13.5642857,6.7826087 C13.7214286,6.93167702 13.8785714,7.00621118 14.1142857,7.00621118 C14.35,7.00621118 14.5071429,6.93167702 14.6642857,6.7826087 L15.7642857,5.73913043 C15.9214286,5.59006211 16,5.44099379 16,5.2173913 C16,4.99378882 15.9214286,4.8447205 15.7642857,4.69565217 L11.05,0.223602484 C10.8928571,0.0745341615 10.6571429,0 10.5,0 C10.3428571,0 10.1071429,0.0745341615 9.95,0.223602484 L5.23571429,4.69565217 C5.07857143,4.8447205 5,4.99378882 5,5.2173913 C5,5.44099379 5.07857143,5.59006211 5.23571429,5.73913043 L6.33571429,6.7826087 Z" id="Shape"></path>
                        </g>
                    </g>
                </g>
            </g>
        </g>
    </g>
</svg>