<?xml version="1.0" encoding="UTF-8"?>
<svg width="30px" height="30px" viewBox="0 0 24 24" version="1.1" xmlns="http://www.w3.org/2000/svg" xmlns:xlink="http://www.w3.org/1999/xlink">
    <!-- Generator: Sketch 51.2 (57519) - http://www.bohemiancoding.com/sketch -->
    <g id="Affilate" stroke="none" stroke-width="1" fill="none" fill-rule="evenodd">
        <g id="Mobile" transform="translate(-33.000000, -423.000000)" fill="#000000" fill-rule="nonzero">
            <g id="whatsapp" transform="translate(33.000000, 423.000000)">
                <path d="M12,0 C5.3735962,0 0,5.3735962 0,12 C0,18.6264038 5.3735962,24 12,24 C18.6264038,24 24,18.6264038 24,12 C24,5.3735962 18.6264038,0 12,0 Z M12.2543335,18.9867554 C12.2541504,18.9867554 12.2545166,18.9867554 12.2543335,18.9867554 L12.2514038,18.9867554 C11.0493164,18.986206 9.86810302,18.6848145 8.8190918,18.112793 L5.0117798,19.1112671 L6.03076172,15.390564 C5.40216066,14.3018189 5.07147216,13.0665893 5.07202148,11.8011474 C5.07366942,7.84240725 8.29559325,4.62176512 12.2543335,4.62176512 C14.1754761,4.62249755 15.9788818,5.37030028 17.3347778,6.72729492 C18.6908569,8.08447266 19.4371948,9.88842773 19.4364624,11.8068237 C19.4348145,15.7657471 16.2125244,18.9867554 12.2543335,18.9867554 Z" id="Shape"></path>
                <path d="M12.0025765,6 C8.69302516,6 6.00147262,8.69036592 6.00000032,11.9974235 C5.99963227,13.1306935 6.3169134,14.2343342 6.91742868,15.189277 L7.06005792,15.4161887 L6.4538375,17.6295433 L8.72467966,17.0340152 L8.94386866,17.163942 C9.86497773,17.7105174 10.9209865,17.9996319 11.9976075,18 L12,18 C15.3069748,18 17.9985273,15.30945 17.9999996,12.0022084 C18.0005517,10.3994724 17.3770317,8.89261726 16.2442792,7.75897926 C15.1115267,6.62534125 13.6049934,6.00055211 12.0025765,6 Z M15.5316849,14.5760819 C15.3813261,14.9971475 14.6608182,15.3815906 14.314275,15.4334877 C14.0034352,15.4798638 13.6103305,15.4991872 13.1782099,15.3620832 C12.9161401,15.2789007 12.5802711,15.1679293 12.1498067,14.9822409 C10.3405313,14.2012085 9.15882479,12.3800264 9.06864625,12.2596694 C8.97846772,12.1393123 8.33212704,11.2819066 8.33212704,10.3943196 C8.33212704,9.50691653 8.79811074,9.07057631 8.96337664,8.89022481 C9.12882662,8.70968929 9.32427471,8.66460142 9.44445142,8.66460142 C9.56462807,8.66460142 9.68498876,8.66570559 9.79007434,8.67085849 C9.90086511,8.67637948 10.0495676,8.62871514 10.1958776,8.98040058 C10.3462365,9.34147163 10.7069505,10.2288746 10.7520398,10.3190504 C10.7971291,10.4094102 10.8271272,10.5146766 10.7671309,10.6350336 C10.7069505,10.7553906 10.5070855,11.01506 10.3162384,11.2517253 C10.2361819,11.3509186 10.1318325,11.439254 10.2371021,11.6197896 C10.3421877,11.8001411 10.704374,12.3907003 11.2404761,12.8688157 C11.9295135,13.4831151 12.5107048,13.6734043 12.6910618,13.7637641 C12.8712348,13.8539398 12.9765044,13.8388492 13.081774,13.7186762 C13.1868596,13.5983192 13.5326666,13.1921602 13.6528432,13.0116247 C13.77302,12.8310892 13.8933806,12.8612704 14.0586466,12.9214489 C14.2240965,12.9814434 15.1107905,13.4177836 15.2911476,13.5079594 C15.4715046,13.5983192 15.5916812,13.643407 15.6367705,13.7186762 C15.6820438,13.7939453 15.6820438,14.1548324 15.5316849,14.5760819 Z" id="Shape"></path>
            </g>
        </g>
    </g>
</svg>