<svg xmlns="http://www.w3.org/2000/svg" width="31.994" height="31.998" viewBox="0 0 31.994 31.998">
    <defs>
        <style>
            .cls-1{fill:#fff}
        </style>
    </defs>
    <path id="Union_44" d="M-3406.316 16878.313A15.9 15.9 0 0 1-3411 16867a15.892 15.892 0 0 1 4.682-11.312A15.891 15.891 0 0 1-3395 16851a15.891 15.891 0 0 1 11.313 4.686A15.879 15.879 0 0 1-3379 16867a15.88 15.88 0 0 1-4.686 11.314A15.891 15.891 0 0 1-3395 16883a15.9 15.9 0 0 1-11.316-4.687zm3.538-17.283a2.438 2.438 0 0 0-1.682 1.7 25.259 25.259 0 0 0-.394 4.588 25.217 25.217 0 0 0 .394 4.594 2.4 2.4 0 0 0 1.682 1.682 56.312 56.312 0 0 0 7.462.406 58.005 58.005 0 0 0 7.47-.395 2.4 2.4 0 0 0 1.682-1.682 25.61 25.61 0 0 0 .394-4.588 24.572 24.572 0 0 0-.394-4.605 2.4 2.4 0 0 0-1.682-1.684c-1.483-.4-7.406-.406-7.47-.406a57.888 57.888 0 0 0-7.462.389zm5.563 3.428l4.966 2.859-4.966 2.861z" class="cls-1" data-name="Union 44" transform="translate(3410.998 -16851)"/>
</svg>
