<?xml version="1.0" encoding="utf-8"?>
<!-- Generator: Adobe Illustrator 22.0.0, SVG Export Plug-In . SVG Version: 6.00 Build 0)  -->
<svg version="1.1" id="Layer_1" xmlns="http://www.w3.org/2000/svg" xmlns:xlink="http://www.w3.org/1999/xlink" x="0px" y="0px"
	 viewBox="0 0 85.5 85.5" style="enable-background:new 0 0 85.5 85.5;" xml:space="preserve">
<g>
	<path style="fill:#000000;" d="M41.9,65.2V47.8h7.7V37.7h-7.7V20.3l18.9,18.9l7.1-7.1L36.6,0.7l-35.9,42l35.9,42l31.3-31.3
		l-7.1-7.1L41.9,65.2z M31.8,21.8v41.9l-17.9-21L31.8,21.8z"/>
	<g>
		<path style="fill:#000000;" d="M0.3,42.8L36.6,0.4l31.7,31.7l-7.5,7.5L42.1,20.9v16.6h7.7v10.6h-7.7v16.6L60.8,46l7.5,7.5
			L36.6,85.2L0.3,42.8z M31.6,63.1V22.5L14.2,42.8L31.6,63.1z"/>
		<path style="fill:#000000;" d="M36.6,0.7l31.3,31.3l-7.1,7.1L41.9,20.3v17.4h7.7v10.1h-7.7v17.4l18.9-18.9l7.1,7.1L36.6,84.8
			l-35.9-42L36.6,0.7 M31.8,63.7V21.8l-17.9,21L31.8,63.7 M36.5,0l-0.4,0.4l-35.9,42L0,42.8l0.3,0.3l35.9,42l0.4,0.4l0.4-0.4
			l31.3-31.3l0.4-0.4l-0.4-0.4L61.1,46l-0.4-0.4L60.4,46l-18,18V48.3h7.2h0.5v-0.5V37.7v-0.5h-0.5h-7.2V21.5l18,18l0.4,0.4l0.4-0.4
			l7.1-7.1l0.4-0.4l-0.4-0.4L36.9,0.4L36.5,0L36.5,0z M14.6,42.8l16.8-19.6v39.2L14.6,42.8L14.6,42.8z"/>
	</g>
</g>
</svg>
