<svg id="bitcoin" xmlns="http://www.w3.org/2000/svg" xmlns:xlink="http://www.w3.org/1999/xlink" width="21.941" height="21.941" viewBox="0 0 21.941 21.941">
  <defs>
    <linearGradient id="linear-gradient" x1="1.199" y1="1.143" x2="0" gradientUnits="objectBoundingBox">
      <stop offset="0" stop-color="#fd3f2f"/>
      <stop offset="1" stop-color="#face15"/>
    </linearGradient>
  </defs>
  <rect id="Rectangle_3" data-name="Rectangle 3" width="21.941" height="21.941" rx="10.971" fill="url(#linear-gradient)"/>
  <path id="Shape" d="M4.918,13.409h0L3.8,13.12l.457-1.9c-.314-.081-.606-.16-.891-.24l-.458,1.91L1.79,12.6l.463-1.93-.191-.051-.113-.03c-.147-.04-.32-.087-.494-.132L0,10.077l.555-1.33.024.007c.481.132.76.205.787.205l0,0a.5.5,0,0,0,.132.019.412.412,0,0,0,.38-.294l.732-3.046.072.019.01,0,.02.005.015,0a.869.869,0,0,0-.116-.039l.522-2.174a.615.615,0,0,0-.521-.675c0-.015-.587-.157-.812-.21l.3-1.241,1.543.4,0,.006c.236.06.483.12.714.174L4.813,0,5.931.29,5.482,2.16l.063.015.073.017c.251.06.511.122.76.187L6.824.521,7.942.81,7.484,2.719c1.7.609,2.417,1.459,2.242,2.671A1.837,1.837,0,0,1,8.3,7.1,2.064,2.064,0,0,1,9.326,9.914a2.339,2.339,0,0,1-2.482,1.735,7.7,7.7,0,0,1-1.462-.167l-.463,1.926ZM4.343,7.022,3.729,9.58l.17.046.048.013A7.5,7.5,0,0,0,5.8,9.966c.777,0,1.24-.287,1.376-.853a1.073,1.073,0,0,0-.121-.842c-.442-.717-1.735-1.019-2.43-1.182-.12-.028-.208-.049-.278-.067h0Zm.838-3.49h0l-.557,2.32.184.05A5.83,5.83,0,0,0,6.3,6.166c.683,0,1.093-.268,1.22-.8a1.015,1.015,0,0,0-.109-.8c-.38-.613-1.432-.855-2-.985-.09-.021-.167-.038-.23-.055Z" transform="translate(6.095 4.267)" fill="#fff" stroke="rgba(0,0,0,0)" stroke-width="1"/>
</svg>
