<?xml version="1.0" encoding="UTF-8"?>
<svg width="31px" height="40px" viewBox="0 0 31 40" version="1.1" xmlns="http://www.w3.org/2000/svg" xmlns:xlink="http://www.w3.org/1999/xlink">
    <!-- Generator: Sketch 51.2 (57519) - http://www.bohemiancoding.com/sketch -->
    <title>navigation-history-interface-symbol-of-a-clock-with-an-arrow</title>
    <desc>Created with Sketch.</desc>
    <defs>
        <linearGradient x1="50%" y1="0%" x2="50%" y2="100%" id="linearGradient-1">
            <stop stop-color="#A4A4A4" offset="0%"></stop>
            <stop stop-color="#000000" offset="100%"></stop>
        </linearGradient>
    </defs>
    <g id="credit-card-page" stroke="none" stroke-width="1" fill="none" fill-rule="evenodd">
        <g id="indacoin-Desktop-credit-card-step-4-when-you-choose-coin(total-charge)" transform="translate(-760.000000, -1339.000000)" fill="url(#linearGradient-1)" fill-rule="nonzero">
            <g id="navigation-history-interface-symbol-of-a-clock-with-an-arrow" transform="translate(760.000000, 1339.000000)">
                <path d="M0,14.8099865 C0,6.64363998 6.59933662,0 14.7116092,0 C21.4271071,0 27.0918187,4.5574653 28.8495538,10.7582999 C28.5281743,11.1085077 28.3032517,11.5526124 28.2402665,12.055446 L28.0795337,13.3477413 L27.8069419,14.8114591 L26.303557,14.8098999 C26.303557,8.37484273 21.1026299,3.13974313 14.7116092,3.13974313 C8.31886753,3.13974313 3.1181986,8.37492935 3.1181986,14.8098999 C3.1181986,19.1748938 5.51542294,22.981357 9.04973701,24.9832497 L6.78269933,27.2651873 C2.70982722,24.6279313 0,20.0359043 0,14.8099865 Z M14.7116092,5.50804166 C13.8497786,5.50804166 13.1525529,6.21122908 13.1525529,7.07778329 L13.1525529,14.8099865 C13.1525529,15.6765407 13.8498647,16.3794683 14.7116092,16.3794683 L23.5336701,16.3794683 C24.3952425,16.3794683 25.0929845,15.6765407 25.0929845,14.8099865 C25.0929845,13.9426527 24.3952425,13.2397252 23.5336701,13.2397252 L16.2710096,13.2397252 L16.2710096,7.07778329 C16.2710096,6.21122908 15.5721491,5.50804166 14.7116092,5.50804166 Z M30.9509541,12.4276554 C30.9402845,12.017073 30.6168399,11.6842759 30.2105336,11.6632271 C29.8210062,11.6407057 29.4486878,11.9405002 29.3973187,12.3495235 L29.2309069,13.6884208 L28.9394712,15.2517524 C28.8190077,15.7939985 28.6948442,16.3543483 28.4634682,16.9636388 L28.1140379,17.9927802 L27.6186746,19.0897456 C27.4415932,19.5394807 27.1731316,19.9923341 26.8883214,20.4721265 C26.7438512,20.7148379 26.5979183,20.9600613 26.4611061,21.2109151 C26.3176684,21.4059851 26.1772424,21.6040868 26.0379349,21.8038343 C25.6706932,22.3245117 25.3248768,22.8165177 24.8604899,23.3065314 C24.4571092,23.8134362 23.9730178,24.2665494 23.4624245,24.7457356 C23.3118451,24.8871007 23.1622982,25.0273397 23.0143002,25.1697442 C22.8484907,25.2967303 22.6842301,25.4251889 22.5219485,25.5526947 C21.9788301,25.9786956 21.4676344,26.3800963 20.8583471,26.7322963 C20.3884533,27.0620616 19.851358,27.3288536 19.3330206,27.5853377 C19.1163583,27.6928341 18.9012449,27.7993776 18.6927569,27.9088663 C18.4283395,28.0045822 18.1709777,28.1075743 17.9171438,28.2099601 C17.4420873,28.4009589 16.9939629,28.5806104 16.5189924,28.6861145 L15.4880827,28.9738687 L14.4747263,29.1479764 C13.9589702,29.259544 13.505339,29.2851837 13.0659052,29.3117763 L12.2399556,29.3752693 L12.1232781,29.3722376 L12.1232781,25.7099114 C12.1232781,25.3930526 11.933548,25.1062512 11.6418541,24.9844624 C11.3493859,24.8635398 11.0155298,24.9301512 10.7914676,25.1544124 L4.0832836,31.9074544 C3.93735063,32.0548829 3.8551773,32.2546304 3.8551773,32.4624337 C3.8551773,32.6703235 3.93735063,32.8699844 4.0832836,33.0174129 L10.7916397,39.7707148 C10.9411866,39.9202223 11.1405537,40 11.3431906,40 C11.4436056,40 11.5453973,39.9805103 11.6420262,39.9405782 C11.9337201,39.8187027 12.1234501,39.531988 12.1234501,39.2145228 L12.1234501,35.3873573 L13.5592034,35.1226442 C14.2231296,34.9843974 15.0498536,34.8113291 15.8414711,34.5158657 L16.7643078,34.2040309 L18.2941947,33.5527293 C18.9391049,33.2967649 19.549941,32.9373753 20.1403844,32.5897662 C20.3926695,32.4406918 20.6478801,32.2907513 20.9083395,32.1468742 C20.9368205,32.130936 20.9633225,32.1135252 20.9907709,32.0945552 C21.1941822,31.9471267 21.4006911,31.8016904 21.6087489,31.6559076 C22.2388592,31.2155276 22.8893623,30.759296 23.446248,30.2324685 C24.1338367,29.6810407 24.7345195,29.0421258 25.3153258,28.4235669 L25.7369482,27.9771235 C25.7547596,27.9576338 25.772571,27.937711 25.78978,27.9162291 L26.1713053,27.4303731 C26.6905891,26.7730081 27.2291472,26.0910428 27.6350232,25.3916666 C28.0907196,24.7362939 28.4335244,24.0532891 28.7651433,23.3917663 C28.8790674,23.1633473 28.9929915,22.9370938 29.1089806,22.7158644 C29.1242107,22.6852006 29.1390105,22.6544503 29.1506266,22.622747 C29.2543973,22.3421824 29.3652238,22.0682875 29.4751037,21.7994166 C29.7171494,21.2034657 29.9669391,20.5881117 30.1077954,19.9839318 L30.4678954,18.6962274 L30.6724252,17.5636609 C30.8355673,16.817163 30.8828922,16.1338984 30.9247103,15.5315375 L31,14.5070737 L30.9509541,12.4276554 Z" id="Shape"></path>
            </g>
        </g>
    </g>
</svg>