<svg id="earth" xmlns="http://www.w3.org/2000/svg" width="12" height="12" viewBox="0 0 12 12">
  <path id="Path_1945" data-name="Path 1945" d="M10.243,1.757a6,6,0,0,1-8.485,8.485,6,6,0,1,1,8.485-8.485Zm-.53,7.955a5.214,5.214,0,0,0,1.433-2.661c-.158.232-.309.319-.4-.2-.1-.848-.875-.306-1.365-.608C8.862,6.59,7.7,5.566,7.9,6.72c.3.521,1.641-.7.974.4C8.449,7.894,7.32,9.6,7.466,10.48c.019,1.286-1.314.268-1.773-.158-.309-.855-.105-2.348-.913-2.767-.877-.038-1.629-.118-1.969-1.1a1.6,1.6,0,0,1,.969-1.906c1.1-.691,1.493.809,2.524.837.32-.335,1.193-.442,1.266-.817-.677-.119.859-.569-.065-.825-.509.06-.838.528-.567.925-.987.23-1.019-1.429-1.968-.905-.024.827-1.549.268-.528.1.351-.153-.573-.6-.074-.517.245-.013,1.07-.3.847-.5.459-.285.846.683,1.3-.022.325-.542-.136-.642-.543-.367-.229-.257.405-.812.965-1.052a1.112,1.112,0,0,1,.5-.111c.282.326.8.382.831-.039a5.263,5.263,0,0,0-5.4.525c.242.111.379.249.146.425-.181.54-.916,1.264-1.561,1.162A5.192,5.192,0,0,0,.8,5.254c.54.179.665.533.549.651a1.777,1.777,0,0,0-.532.953A5.251,5.251,0,0,0,9.712,9.712Z" fill="#fff"/>
</svg>
