<svg xmlns="http://www.w3.org/2000/svg" viewBox="0 0 42.52 50">
  <g>
    <path d="M16.58,0,4.94,16.15,0,39.9,16.58,50,33.15,39.9,28.21,16ZM2.68,38.75l3.7-18.13,8.45,25.53ZM7.62,16.56l9-12.39,9,12.39-9,27.19ZM18.33,46.15l8.44-25.53,3.71,18.13Z"></path>
    <polygon points="35.21 46.46 36.45 46.46 36.45 50 36.76 50 36.76 46.46 37.99 46.46 37.99 46.15 35.21 46.15 35.21 46.46"></polygon>
    <polygon points="42.01 46.15 40.77 49.27 39.54 46.15 39.02 46.15 39.02 50 39.33 50 39.33 46.56 40.67 50 40.77 50 42.21 46.56 42.21 50 42.52 50 42.52 46.15 42.01 46.15"></polygon>
  </g>
</svg>