<?xml version="1.0" encoding="UTF-8"?>
<svg width="36px" height="44px" viewBox="0 0 36 44" version="1.1" xmlns="http://www.w3.org/2000/svg" xmlns:xlink="http://www.w3.org/1999/xlink">
    <!-- Generator: Sketch 51.2 (57519) - http://www.bohemiancoding.com/sketch -->
    <title>like</title>
    <desc>Created with Sketch.</desc>
    <defs>
        <linearGradient x1="50%" y1="0%" x2="50%" y2="100%" id="linearGradient-1">
            <stop stop-color="#999999" offset="0%"></stop>
            <stop stop-color="#000000" offset="100%"></stop>
        </linearGradient>
    </defs>
    <g id="credit-card-page" stroke="none" stroke-width="1" fill="none" fill-rule="evenodd">
        <g id="indacoin-Desktop-credit-card-step-4-when-you-choose-coin(total-charge)" transform="translate(-418.000000, -1332.000000)" fill="url(#linearGradient-1)" fill-rule="nonzero">
            <g id="like" transform="translate(418.000000, 1332.000000)">
                <path d="M11,18 C11,17.45 10.5058236,17 9.90183028,17 L1.09816972,17 C0.494176373,17 0,17.45 0,18 C0,18.55 0.494176373,19 1.09816972,19 L9.90183028,19 C10.5058236,19 11,18.55 11,18 Z" id="Shape"></path>
                <path d="M34.9018303,17 L26.0981697,17 C25.4941764,17 25,17.45 25,18 C25,18.55 25.4941764,19 26.0981697,19 L34.9018303,19 C35.5058236,19 36,18.55 36,18 C36,17.45 35.514975,17 34.9018303,17 Z" id="Shape"></path>
                <path d="M18,11 C18.55,11 19,10.5058236 19,9.90183028 L19,1.09816972 C19,0.494176373 18.55,0 18,0 C17.45,0 17,0.494176373 17,1.09816972 L17,9.90183028 C17,10.5058236 17.45,11 18,11 Z" id="Shape"></path>
                <path d="M24.0439501,13 C24.3130765,13 24.5735214,12.8957938 24.7818774,12.6960651 L30.6939772,6.78236092 C31.1020076,6.37421981 31.1020076,5.71424695 30.6939772,5.30610583 C30.2859468,4.89796472 29.626153,4.89796472 29.2181226,5.30610583 L23.3060228,11.21981 C22.8979924,11.6279512 22.8979924,12.287924 23.3060228,12.6960651 C23.5143787,12.8957938 23.7835052,13 24.0439501,13 Z" id="Shape"></path>
                <path d="M11.2181226,12.6960651 C11.4177971,12.8957938 11.6869235,13 11.9560499,13 C12.2251763,13 12.4856213,12.8957938 12.6939772,12.6960651 C13.1020076,12.287924 13.1020076,11.6279512 12.6939772,11.21981 L6.78187737,5.30610583 C6.37384699,4.89796472 5.71405317,4.89796472 5.30602279,5.30610583 C4.8979924,5.71424695 4.8979924,6.37421981 5.30602279,6.78236092 L11.2181226,12.6960651 Z" id="Shape"></path>
                <path d="M30.3849573,24.8786186 C29.5626845,24.1724313 28.5235486,23.7831228 27.4663407,23.7831228 L26.4814206,23.7831228 L22.9393224,23.7831228 L21.2586329,23.7831228 L21.2586329,19.3920859 C21.2586329,17.2916312 20.6351514,15.7615585 19.3972242,14.8471364 C17.4454558,13.4166543 14.7979182,14.2224322 14.6804506,14.2586469 C14.2286524,14.4035059 13.9214296,14.8199753 13.9214296,15.2907669 L13.9214296,20.5871723 C13.9214296,22.1987281 13.1533726,23.5658344 11.6262945,24.6613302 C10.469691,25.4942692 9.28597966,25.8745239 9.13236826,25.9197924 L9.02393669,25.9469534 C8.61731827,25.4852155 8.0209446,25.1954976 7.35228321,25.1954976 L3.23188329,25.1954976 C2.00299209,25.1954976 1,26.2004566 1,27.4317576 L1,40.9760694 C1,42.2073705 2.00299209,43.2123295 3.23188329,43.2123295 L7.37035514,43.2123295 C7.91251302,43.2123295 8.41852705,43.0131484 8.79803757,42.6872158 C9.62934632,43.5020474 10.7588419,44 11.9786972,44 L16.0900611,44 L16.5147515,44 L24.9272346,44 C26.2284135,44 27.3759811,43.683121 28.2524696,43.0946316 C29.3729293,42.3341221 30.0686986,41.1299821 30.2674898,39.5908557 L31.9391433,29.1791187 C32.2011862,27.5675629 31.6048126,25.9197924 30.3849573,24.8786186 Z M7.43360689,40.9760694 C7.43360689,41.0122842 7.406499,41.0394452 7.37035514,41.0394452 L3.23188329,41.0394452 C3.19573943,41.0394452 3.16863154,41.0122842 3.16863154,40.9760694 L3.16863154,27.4317576 C3.16863154,27.3955429 3.19573943,27.3683818 3.23188329,27.3683818 L7.37035514,27.3683818 C7.406499,27.3683818 7.43360689,27.3955429 7.43360689,27.4317576 L7.43360689,40.9760694 Z M29.7976196,28.8441324 L28.1259661,39.2739768 C28.1259661,39.2830305 28.1259661,39.3011378 28.1169302,39.3192452 C28.0446425,39.9439494 27.8097074,41.8361694 24.9272346,41.8361694 L16.5147515,41.8361694 L16.0900611,41.8361694 L11.9786972,41.8361694 C10.8220937,41.8361694 9.81006562,40.9670157 9.62934632,39.8171978 C9.62031036,39.7719294 9.61127439,39.726661 9.60223843,39.6904462 L9.60223843,28.0474082 L9.66549018,28.0293008 C9.68356211,28.0293008 9.69259808,28.0202471 9.71067,28.0202471 C9.77392176,28.0021398 11.3100358,27.5675629 12.8371138,26.4720671 C14.9605655,24.9601018 16.0900611,22.9230228 16.0900611,20.5871723 L16.0900611,16.1870817 C16.6864348,16.1237059 17.5087076,16.1508669 18.1141172,16.5944975 C18.7647067,17.0743427 19.0900014,18.0159259 19.0900014,19.3830322 L19.0900014,24.8605113 C19.0900014,25.4580544 19.5779435,25.9469534 20.1743172,25.9469534 L22.9393224,25.9469534 L26.4814206,25.9469534 L27.4663407,25.9469534 C28.0084986,25.9469534 28.5416205,26.1551881 28.9753468,26.5173355 C29.6259363,27.0786639 29.9331591,27.965925 29.7976196,28.8441324 Z" id="Shape"></path>
            </g>
        </g>
    </g>
</svg>