<?xml version="1.0" encoding="UTF-8"?>
<svg width="34px" height="44px" viewBox="0 0 34 44" version="1.1" xmlns="http://www.w3.org/2000/svg" xmlns:xlink="http://www.w3.org/1999/xlink">
    <!-- Generator: Sketch 51.2 (57519) - http://www.bohemiancoding.com/sketch -->
    <title>lock-outlined-padlock-symbol-for-security-interface</title>
    <desc>Created with Sketch.</desc>
    <defs></defs>
    <g id="API" stroke="none" stroke-width="1" fill="none" fill-rule="evenodd">
        <g id="Desktop---api-step6.1--create-api-with-history" transform="translate(-614.000000, -1474.000000)" fill="#747474" fill-rule="nonzero">
            <g id="Group-5" transform="translate(93.000000, 1146.000000)">
                <g id="lock-outlined-padlock-symbol-for-security-interface" transform="translate(521.000000, 328.000000)">
                    <path d="M16.4999268,25 C14.5399473,25 13,26.7874575 13,29.0624575 C13,30.3624575 13.5599941,31.5 14.3999854,32.3124575 L14.3999854,35.5624575 C14.3999854,36.8624575 15.3800117,38 16.5,38 C17.6199883,38 18.6000146,36.8624575 18.6000146,35.5624575 L18.6000146,32.3124575 C19.4400059,31.5 20,30.3624575 20,29.0624575 C19.9998536,26.7874575 18.4599063,25 16.4999268,25 Z M17.1998829,31.3375425 L17.1998829,35.5625425 C17.1998829,36.05 16.9198858,36.375 16.4999268,36.375 C16.0799678,36.375 15.7999707,36.05 15.7999707,35.5625425 L15.7999707,31.3375425 C14.9599795,31.0125425 14.3999854,30.0374575 14.3999854,29.0625425 C14.3999854,27.7625425 15.3800117,26.625 16.5,26.625 C17.6199883,26.625 18.6000146,27.7625425 18.6000146,29.0625425 C18.5998682,30.2 18.0398741,31.0125425 17.1998829,31.3375425 Z" id="Shape"></path>
                    <path d="M29.1428571,17.9259259 L29.1428571,12.2221796 C29.1428571,5.54074074 23.6380952,0 17.0000423,0 C10.3619048,0 4.85714286,5.54074074 4.85714286,12.2222648 L4.85714286,17.9260111 C2.10471958,17.9260111 0,20.044487 0,22.8149 L0,39.1111111 C0,41.8815241 2.10471958,44 4.85714286,44 L29.1428571,44 C31.8952804,44 34,41.8815241 34,39.1111111 L34,22.8148148 C34,20.2074074 31.8952804,17.9259259 29.1428571,17.9259259 Z M6.47619048,12.2222648 C6.47619048,6.35559816 11.1713862,1.62971484 16.9999577,1.62971484 C22.8285291,1.62971484 27.5237249,6.35559816 27.5237249,12.2222648 L27.5237249,17.9260111 L25.9046772,17.9260111 L25.9046772,12.2222648 C25.9046772,7.33337594 21.8571005,3.25925926 16.999873,3.25925926 C12.1426455,3.25925926 8.0952381,7.33329073 8.0952381,12.2222648 L8.0952381,17.9260111 L6.47619048,17.9260111 L6.47619048,12.2222648 Z M24.2857143,12.2222648 L24.2857143,17.9260111 L9.71428571,17.9260111 L9.71428571,12.2222648 C9.71428571,8.14823336 12.952381,4.8889741 16.9999577,4.8889741 C21.0475344,4.8889741 24.2857143,8.14814815 24.2857143,12.2222648 Z M32.3809524,39.1111111 C32.3809524,40.9036611 30.9237672,42.3703704 29.1428571,42.3703704 L4.85714286,42.3703704 C3.07614815,42.3703704 1.61904762,40.9036611 1.61904762,39.1111111 L1.61904762,22.8148148 C1.61904762,21.0221796 3.07614815,19.5555556 4.85714286,19.5555556 L29.1428571,19.5555556 C30.9237672,19.5555556 32.3809524,21.0221796 32.3809524,22.8148148 L32.3809524,39.1111111 Z" id="Shape"></path>
                </g>
            </g>
        </g>
    </g>
</svg>