<?xml version="1.0" encoding="UTF-8"?>
<svg width="42px" height="26px" viewBox="0 0 42 26" version="1.1" xmlns="http://www.w3.org/2000/svg" xmlns:xlink="http://www.w3.org/1999/xlink">
    <!-- Generator: Sketch 51.2 (57519) - http://www.bohemiancoding.com/sketch -->
    <title>money (1)</title>
    <desc>Created with Sketch.</desc>
    <defs>
        <linearGradient x1="50%" y1="0%" x2="50%" y2="100%" id="linearGradient-1">
            <stop stop-color="#969696" offset="0%"></stop>
            <stop stop-color="#000000" offset="100%"></stop>
        </linearGradient>
    </defs>
    <g id="credit-card-page" stroke="none" stroke-width="1" fill="none" fill-rule="evenodd">
        <g id="indacoin-Desktop-credit-card-step-4-when-you-choose-coin(total-charge)" transform="translate(-71.000000, -1343.000000)" fill="url(#linearGradient-1)" fill-rule="nonzero">
            <g id="money-(1)" transform="translate(71.000000, 1343.000000)">
                <path d="M41.8793311,16.8366214 L39.1327671,12.4617179 C39.5109179,12.125237 39.8794005,11.7754421 40.2366645,11.4107504 C40.43933,11.2037783 40.4941464,10.8898288 40.3739335,10.6241076 L35.7493849,0.405478657 C35.6556225,0.198227276 35.4685537,0.0509354148 35.2483762,0.0109003323 C35.0281074,-0.0293209599 34.8028223,0.0432077128 34.6446666,0.204651511 C32.7370392,2.1519393 30.5059861,3.67364486 28.0135293,4.72759168 C25.5210724,5.7815385 22.8893401,6.3158672 20.1915728,6.3158672 L0.684064341,6.3158672 C0.450661588,6.3158672 0.23358517,6.43727591 0.10780854,6.63791685 C0.0363010144,6.75206339 0.00136812868,6.88278259 0.00136812868,7.01415352 L0,7.01415352 L0,15.0828054 C0,15.1839173 0.0215252246,15.2838188 0.063025128,15.3757133 L4.6875737,25.594156 L4.68793853,25.5939698 C4.79638553,25.8334354 5.033163,26 5.30861291,26 L41.3159357,26 C41.6938128,26 42,25.6873539 42,25.3017137 L42,17.2323169 C41.9999088,17.0853044 41.9552166,16.949092 41.8793311,16.8366214 Z M1.36812868,10.1907046 L4.62445736,17.3862192 L4.62445736,18.1723034 L1.36812868,10.9767887 L1.36812868,10.1907046 Z M6.58124621,7.71234674 L17.1182085,7.71234674 L18.0036614,9.66885191 C16.2978785,9.9552424 14.2278998,10.5858415 14.2278998,11.960069 C14.2278998,13.9566092 18.556659,14.3910364 20.1826343,14.4836758 L21.1104992,16.5340306 L11.5017666,16.5340306 C11.0065952,14.9489207 8.62659859,13.8175106 5.57941118,13.8175106 C5.22880541,13.8175106 4.88084468,13.834735 4.53844767,13.8659251 L2.85172743,10.138752 C4.80359101,9.74519788 6.17965484,8.84561889 6.58124621,7.71234674 Z M19.52876,13.0388748 C17.1979248,12.8316234 15.8834267,12.2812807 15.6218405,11.9613725 C15.8250533,11.7259103 16.7334907,11.256755 18.6010776,10.9887993 L19.52876,13.0388748 Z M21.4961291,20.575805 L5.99258605,20.575805 L5.99258605,20.0359831 L21.4961291,20.0359831 L21.4961291,20.575805 Z M5.74586684,16.5340306 L5.15301108,15.2238593 C5.29456679,15.2179937 5.43657855,15.2139901 5.57941118,15.2139901 C7.76805224,15.2139901 9.31403765,15.865724 9.93142852,16.5339375 L5.74586684,16.5339375 L5.74586684,16.5340306 Z M21.4961291,18.6393173 L5.99258605,18.6393173 L5.99258605,17.9308826 L21.4961291,17.9308826 L21.4961291,18.6393173 Z M5.99258605,21.9723776 L21.4961291,21.9723776 L21.4961291,22.5309135 L5.99258605,22.5309135 L5.99258605,21.9723776 Z M22.8642577,17.9309757 C22.8642577,17.9309757 25.1450195,17.9285549 25.3091949,17.9248308 L25.3091949,24.6034274 L22.8642577,24.6034274 L22.8642577,17.9309757 Z M26.6772324,21.9723776 L40.6317801,21.9723776 L40.6317801,22.5309135 L26.6772324,22.5309135 L26.6772324,21.9723776 Z M26.6772324,20.575805 L26.6772324,20.0359831 L40.6317801,20.0359831 L40.6317801,20.575805 L26.6772324,20.575805 Z M26.6772324,18.6393173 L26.6772324,17.9305102 L40.6317801,17.9305102 L40.6317801,18.6393173 L26.6772324,18.6393173 Z M40.0643715,16.5340306 L32.4156201,16.5340306 C32.6653492,16.4390637 32.9142574,16.3410243 33.1615239,16.2364675 C34.9258626,15.4904184 36.5666138,14.5234315 38.0660828,13.3510553 L40.0643715,16.5340306 Z M36.5699885,12.7401014 C36.2631628,11.7165998 36.9526085,10.3174202 38.2571648,9.27697362 L38.929372,10.7622752 C38.1883935,11.4848619 37.4002602,12.1441373 36.5699885,12.7401014 Z M34.9090802,1.8788628 L35.4774921,3.13494023 C34.2314917,3.76991526 33.0665757,4.03991931 32.2235349,4.01906382 C33.1695502,3.38045771 34.0664042,2.66652977 34.9090802,1.8788628 Z M28.5370665,6.01774549 C29.2433857,5.71906515 29.9296391,5.38444635 30.5953705,5.01621669 C31.0638178,5.28286896 31.659501,5.41396058 32.3358126,5.41396058 C33.4297683,5.41396058 34.734507,5.07068303 36.0518325,4.40395924 L37.670876,7.98141973 C35.5878545,9.50563912 34.6305292,11.8086805 35.4004209,13.5195751 C34.5206229,14.0626557 33.5991426,14.5397249 32.6379866,14.9461275 C30.6365968,15.7923574 28.5452753,16.3028513 26.4022385,16.4714642 L25.352975,14.1528743 C28.0034963,13.6129593 28.5923389,12.6809798 28.5923389,11.960069 C28.5923389,10.1292554 24.9024959,9.6148511 23.2366624,9.4764042 L22.3874193,7.59987609 C24.498077,7.38340733 26.5586612,6.8542925 28.5370665,6.01774549 Z M23.9016641,10.9458779 C25.9934417,11.2018231 26.9829635,11.7172516 27.1971213,11.9605345 C27.0158898,12.1695549 26.2829377,12.5689747 24.7608489,12.8443788 L23.9016641,10.9458779 Z M20.9248897,7.69838101 L24.9230178,16.5330065 C24.887264,16.5331927 24.8516927,16.5343099 24.8160301,16.5343099 L22.6176297,16.5343099 L18.6252478,7.71225363 L20.1915728,7.71225363 C20.436559,7.71234674 20.6809068,7.70666734 20.9248897,7.69838101 Z M4.95882801,7.71234674 C4.47150058,8.178802 3.53068409,8.6190948 2.25850683,8.82792897 L1.75366734,7.71234674 L4.95882801,7.71234674 Z M1.36812868,14.3069628 L4.62445736,21.5024775 L4.62445736,22.1246971 L1.36812868,14.9291824 L1.36812868,14.3069628 Z M5.99258605,23.9274862 L21.4961291,23.9274862 L21.4961291,24.6034274 L5.99258605,24.6034274 L5.99258605,23.9274862 Z M26.6772324,24.6034274 L26.6772324,23.9274862 L40.6317801,23.9274862 L40.6317801,24.6034274 L26.6772324,24.6034274 Z" id="Shape"></path>
            </g>
        </g>
    </g>
</svg>