<svg xmlns="http://www.w3.org/2000/svg" width="18" height="18" viewBox="0 0 20 20" style="&#10;    /* background-color: #000; */&#10;">
    <defs>
        <style>
            .cls-1{opacity:.4}.cls-2{fill:rgba(255,255,255,.24);stroke:#fff}.cls-3{fill:#fff}.cls-4{stroke:none}.cls-5{fill:none}.cls-6{filter:url(#Rectangle_1905)}
        </style>
        <filter id="Rectangle_1905" width="33" height="33" x="0" y="0" filterUnits="userSpaceOnUse">
            <feOffset dy="2"/>
            <feGaussianBlur result="blur" stdDeviation="2.5"/>
            <feFlood flood-opacity=".161"/>
            <feComposite in2="blur" operator="in"/>
            <feComposite in="SourceGraphic"/>
        </filter>
    </defs>
    <g id="Group_2204" class="cls-1" data-name="Group 2204" transform="translate(-3956.491 -4740.491)">
        <g class="cls-6" transform="translate(3950.49 4736.49)">
            <g id="Rectangle_1905-2" class="cls-2" data-name="Rectangle 1905" transform="translate(7.5 5.5)">
                <rect width="18" height="18" class="cls-4" rx="3"/>
                <rect width="17" height="17" x=".5" y=".5" class="cls-5" rx="2.5"/>
            </g>
        </g>
        <path id="Combined_Shape" d="M4.546 9.742v-3.9H.65a.649.649 0 1 1 0-1.3h3.9V.65a.649.649 0 1 1 1.3 0v3.9h3.9a.649.649 0 0 1 0 1.3h-3.9v3.9a.649.649 0 0 1-1.3 0z" class="cls-3" data-name="Combined Shape" transform="translate(3961.877 4745.688)"/>
    </g>
</svg>