<svg xmlns="http://www.w3.org/2000/svg" width="18" height="18" viewBox="0 0 20 20" style="&#10;">
    <defs>
        <style>
            .cls-1,.cls-3{fill:#fff}.cls-2,.cls-3{stroke:none}.cls-4{filter:url(#Exclusion_8)}
        </style>
        <filter id="Exclusion_8" width="33" height="33" x="0" y="0" filterUnits="userSpaceOnUse">
            <feOffset dy="2"/>
            <feGaussianBlur result="blur" stdDeviation="2.5"/>
            <feFlood flood-opacity=".161"/>
            <feComposite in2="blur" operator="in"/>
            <feComposite in="SourceGraphic"/>
        </filter>
    </defs>
    <g id="plus_hovered" class="cls-4" transform="translate(-6, -4.001)">
        <g id="Exclusion_8-2" class="cls-1" data-name="Exclusion 8">
            <path d="M-1670.009-8037.509h-12a2.503 2.503 0 0 1-2.5-2.5v-12c0-1.378 1.122-2.5 2.5-2.5h12c1.379 0 2.5 1.122 2.5 2.5v12c0 1.379-1.121 2.5-2.5 2.5zm-7.068-7.458v3.395a1.15 1.15 0 0 0 1.149 1.15 1.15 1.15 0 0 0 1.149-1.15v-3.395h3.397a1.15 1.15 0 0 0 0-2.3h-3.397v-3.396c0-.634-.515-1.15-1.149-1.15s-1.149.516-1.149 1.15v3.396h-3.395c-.635 0-1.151.516-1.151 1.15 0 .634.516 1.15 1.15 1.15h3.396z" class="cls-2" transform="translate(1692.51 8060.51)"/>
            <path d="M-1670.009-8038.009c1.103 0 2-.897 2-2v-12c0-1.103-.897-2-2-2h-12c-1.103 0-2 .897-2 2v12c0 1.103.897 2 2 2h12m-7.568-6.458h-2.895c-.91 0-1.651-.74-1.651-1.65 0-.91.74-1.65 1.65-1.65h2.896v-2.896c0-.91.74-1.65 1.649-1.65.91 0 1.649.74 1.649 1.65v2.896h2.897c.91 0 1.65.74 1.65 1.65 0 .91-.74 1.65-1.65 1.65h-2.897v2.895c0 .91-.74 1.65-1.649 1.65a1.65 1.65 0 0 1-1.649-1.65v-2.895m7.568 7.458h-12c-1.654 0-3-1.345-3-3v-12c0-1.654 1.346-3 3-3h12c1.654 0 3 1.346 3 3v12c0 1.655-1.346 3-3 3zm-10.463-9.758a.65.65 0 0 0 0 1.3h3.895v3.895a.65.65 0 0 0 1.298 0v-3.895h3.897a.65.65 0 0 0 0-1.3h-3.897v-3.896a.65.65 0 0 0-.649-.65.65.65 0 0 0-.649.65v3.896h-3.895z" class="cls-3" transform="translate(1692.51 8060.51)"/>
        </g>
    </g>
</svg>