<svg id="tether" xmlns="http://www.w3.org/2000/svg" xmlns:xlink="http://www.w3.org/1999/xlink" width="21" height="21" viewBox="0 0 21 21">
  <defs>
    <linearGradient id="linear-gradient" x1="0.241" y1="0.069" x2="1" y2="1.082" gradientUnits="objectBoundingBox">
      <stop offset="0" stop-color="#26dda9"/>
      <stop offset="1" stop-color="#1d775d"/>
    </linearGradient>
  </defs>
  <path id="Path_1877" data-name="Path 1877" d="M10.5,0A10.5,10.5,0,1,1,0,10.5,10.5,10.5,0,0,1,10.5,0" fill="url(#linear-gradient)"/>
  <path id="Path_1878" data-name="Path 1878" d="M400.768,495.282V493.72h3.572v-2.38h-9.726v2.38h3.572v1.561c-2.9.133-5.086.708-5.086,1.4s2.184,1.264,5.086,1.4v5h2.583v-5c2.9-.134,5.077-.708,5.077-1.4s-2.179-1.263-5.077-1.4m0,2.369h0c-.073,0-.447.027-1.281.027-.667,0-1.135-.019-1.3-.028v0c-2.565-.114-4.479-.56-4.479-1.095s1.915-.98,4.479-1.094v1.744c.168.012.648.04,1.312.04.8,0,1.2-.033,1.271-.04v-1.744c2.56.114,4.47.561,4.47,1.094s-1.911.98-4.47,1.094" transform="translate(-388.972 -486.181)" fill="#fff"/>
</svg>
