<?xml version="1.0" encoding="iso-8859-1"?>
<!-- Generator: Adobe Illustrator 18.1.1, SVG Export Plug-In . SVG Version: 6.00 Build 0)  -->
<svg version="1.1" id="Capa_1" xmlns="http://www.w3.org/2000/svg" xmlns:xlink="http://www.w3.org/1999/xlink" x="0px" y="0px"
	 viewBox="0 0 213.482 213.482" style="enable-background:new 0 0 213.482 213.482;" xml:space="preserve">
<g>
	<path style="fill:#fff;" d="M168.704,130.148c0.583-6.71-1.02-12.39-4.778-16.889c-5.522-6.607-14.051-8.668-17.676-9.273
		c-2.401-6.08-5.97-9.974-10.608-11.585c-3.35-1.16-7.251-1.045-11.184,0.322c0.795-17.866,3.128-73.581,1.954-81.322
		c-0.637-4.098-5.118-10.715-10.45-11.345C115.677,0.025,115.383,0,115.075,0c-2.613,0-6.32,1.446-9.126,8.335
		c-1.313,3.797-2.734,16.828-4.531,33.326l-0.039,0.279c-1.768,16.198-4.692,42.907-7.254,51.432
		c-3.643-8.711-7.576-35.13-9.956-51.145c-2.326-15.647-2.981-19.562-3.879-21.104C78.861,16.423,73.346,9.91,67.548,9.91
		c-0.157,0-0.315,0.004-0.476,0.014c-3.915,0.24-8.847,3.486-10.096,17.647c4.109,54.148,5.647,84.021,5.937,89.979
		c-4.531,3.307-10.15,9.015-11.27,10.168c-9.992,11.044-8.153,20.195-6.166,24.662c0.007,0.018,0.895,1.972,1.607,2.791
		c11.073,19.383,33.555,44.632,33.777,44.861c3.056,2.62,4.695,5.057,4.746,7.047c0.018,1.281-0.673,2.008-0.719,2.044l-0.616,0.565
		l3.382,3.794l0.633-0.544c0.243-0.225,2.426-2.237,2.405-5.826c-0.014-3.518-2.197-7.24-6.274-10.704
		c-0.211-0.24-22.382-25.338-33.172-44.142c-0.29-0.351-7.054-8.718,4.119-21.076c0.072-0.068,7.054-7.258,11.563-10.232
		l1.195-0.795l-0.064-1.442c-0.014-0.315-1.464-31.648-6.016-91.103c0.698-7.616,2.738-12.447,5.307-12.601l0.147-0.004
		c3.124,0,7.397,5.125,8.017,7.988l0.365,1.707l0.29,0.05c0.687,2.981,1.89,11.066,2.956,18.227
		c4.173,28.044,8.009,51.639,12.726,56.345c0.959,0.963,2.323,1.299,3.486,0.877c4.341-1.525,6.378-14.38,11.112-57.809
		c1.639-14.974,3.178-29.114,4.266-32.256c1.342-3.303,2.852-5.043,4.377-5.043c0.086,0,0.175,0.004,0.268,0.014
		c2.598,0.311,5.637,4.627,6.005,7.057c1.231,8.017-1.825,76.455-2.169,84.232l-0.236,5.164l4.155-2.641
		c0.036-0.025,3.572-2.233,7.641-2.233c1.142,0,2.237,0.183,3.239,0.533c3.446,1.199,6.134,4.531,7.988,9.906l0.54,1.56l1.646,0.147
		c0.107,0.011,10.307,1.038,15.861,7.698c2.881,3.464,4.091,7.949,3.582,13.324l-0.011,0.369l0.021,0.175
		c0.19,1.646,4.538,40.677-9.892,68.32l-3.862,13.045l4.885,1.442l3.679-12.583C173.199,172.44,169.209,134.325,168.704,130.148z"/>
</g>
<g>
</g>
<g>
</g>
<g>
</g>
<g>
</g>
<g>
</g>
<g>
</g>
<g>
</g>
<g>
</g>
<g>
</g>
<g>
</g>
<g>
</g>
<g>
</g>
<g>
</g>
<g>
</g>
<g>
</g>
</svg>
