<svg xmlns="http://www.w3.org/2000/svg" width="28" height="28.001" viewBox="0 0 28 28.001">
    <defs>
        <style>
            .cls-1{fill:#00c896}
        </style>
    </defs>
    <g id="account" transform="translate(170 -472)">
        <g id="user-avatar-main-picture" transform="translate(-170.001 472)">
            <g id="Group_580" data-name="Group 580" transform="translate(.001)">
                <path id="Path_1177" d="M14 0a14 14 0 1 0 14 14A14.016 14.016 0 0 0 14 0zm8.073 21.717v-.552c0-1.909-2.206-2.606-3.387-3.111a56.928 56.928 0 0 1-2.06-.974 1.129 1.129 0 0 1-.562-.811l-.091-.9a3.888 3.888 0 0 0 1.3-2.324h.143a.481.481 0 0 0 .469-.374l.224-1.383a.459.459 0 0 0-.475-.475 5.03 5.03 0 0 0 .072-.567c.014-.126.025-.256.032-.391a3.124 3.124 0 0 0-.27-1.544 3.662 3.662 0 0 0-.861-1.254c-1.093-1.035-2.362-1.439-3.443-.606a2.5 2.5 0 0 0-2.244.95 2.945 2.945 0 0 0-.652 1.322 4.192 4.192 0 0 0-.151 1 4.041 4.041 0 0 0 .1 1.1.463.463 0 0 0-.431.47l.223 1.383a.481.481 0 0 0 .469.374h.128a4.642 4.642 0 0 0 1.31 2.367l-.088.875a1.132 1.132 0 0 1-.563.811c-.8.39-1.587.766-2.059.96-1.111.458-3.387 1.2-3.387 3.111v.426a11.18 11.18 0 1 1 16.253.12z" class="cls-1" data-name="Path 1177" transform="translate(-.001)"/>
            </g>
        </g>
    </g>
</svg>
